<svg xmlns="http://www.w3.org/2000/svg" xmlns:xlink="http://www.w3.org/1999/xlink" width="612pt" height="792pt" viewBox="0 0 612 792" version="1.1"><style>.page4_style1{fill:rgb(0%,0%,0%);fill-opacity:1;}.page4_style0{stroke:none;}</style><defs><g><symbol overflow="visible" id="page4_glyph0-0"><path class="page4_style0" d="M 0.0 0.0 L 0.0 -7.5 L 6.0 -7.5 L 6.0 0.0 L 0.0 0.0 Z M 0.2 -0.2 L 5.8 -0.2 L 5.8 -7.3 L 0.2 -7.3 L 0.2 -0.2 Z M 0.2 -0.2"></path></symbol><symbol overflow="visible" id="page4_glyph0-1"><path class="page4_style0" d="M 0.9 -8.6 L 4.9 -8.6 C 5.6 -8.6 6.3 -8.5 6.7 -8.3 C 7.2 -8.1 7.6 -7.8 7.9 -7.4 C 8.2 -7.0 8.5 -6.5 8.6 -6.0 C 8.7 -5.5 8.8 -4.9 8.8 -4.3 C 8.8 -3.4 8.7 -2.7 8.5 -2.2 C 8.3 -1.7 8.0 -1.3 7.6 -0.9 C 7.3 -0.6 6.9 -0.3 6.4 -0.2 C 5.9 -0.1 5.3 0.0 4.9 0.0 L 0.9 0.0 L 0.9 -8.6 Z M 3.6 -6.6 L 3.6 -2.0 L 4.2 -2.0 C 4.8 -2.0 5.2 -2.0 5.4 -2.1 C 5.6 -2.3 5.8 -2.5 6.0 -2.8 C 6.1 -3.1 6.2 -3.6 6.2 -4.3 C 6.2 -5.2 6.0 -5.8 5.7 -6.1 C 5.4 -6.5 4.9 -6.6 4.2 -6.6 L 3.6 -6.6 Z M 3.6 -6.6"></path></symbol><symbol overflow="visible" id="page4_glyph0-2"><path class="page4_style0" d="M 0.4 -3.1 C 0.4 -4.0 0.7 -4.8 1.4 -5.4 C 2.0 -6.1 2.9 -6.4 4.0 -6.4 C 5.2 -6.4 6.2 -6.0 6.8 -5.3 C 7.3 -4.7 7.6 -4.0 7.6 -3.1 C 7.6 -2.2 7.3 -1.4 6.6 -0.8 C 6.0 -0.2 5.1 0.1 4.0 0.1 C 3.0 0.1 2.2 -0.1 1.6 -0.6 C 0.8 -1.2 0.4 -2.1 0.4 -3.1 Z M 2.8 -3.1 C 2.8 -2.5 2.9 -2.1 3.2 -1.9 C 3.4 -1.6 3.7 -1.5 4.0 -1.5 C 4.3 -1.5 4.6 -1.6 4.8 -1.9 C 5.1 -2.1 5.2 -2.5 5.2 -3.1 C 5.2 -3.7 5.1 -4.1 4.8 -4.3 C 4.6 -4.6 4.3 -4.7 4.0 -4.7 C 3.7 -4.7 3.4 -4.6 3.2 -4.3 C 2.9 -4.1 2.8 -3.6 2.8 -3.1 Z M 2.8 -3.1"></path></symbol><symbol overflow="visible" id="page4_glyph0-3"><path class="page4_style0" d="M 5.4 -2.4 L 7.6 -2.2 C 7.5 -1.7 7.3 -1.3 7.0 -0.9 C 6.7 -0.6 6.4 -0.3 5.9 -0.1 C 5.5 0.0 4.9 0.1 4.2 0.1 C 3.6 0.1 3.0 0.1 2.6 -0.0 C 2.1 -0.2 1.8 -0.4 1.4 -0.6 C 1.1 -0.9 0.9 -1.2 0.7 -1.6 C 0.5 -2.0 0.4 -2.5 0.4 -3.1 C 0.4 -3.7 0.5 -4.3 0.8 -4.7 C 0.9 -5.0 1.1 -5.3 1.4 -5.5 C 1.7 -5.8 2.0 -6.0 2.3 -6.1 C 2.7 -6.3 3.3 -6.4 4.1 -6.4 C 5.1 -6.4 5.8 -6.2 6.4 -5.8 C 6.9 -5.5 7.3 -4.9 7.5 -4.2 L 5.3 -3.9 C 5.2 -4.2 5.1 -4.4 4.9 -4.5 C 4.7 -4.7 4.4 -4.7 4.1 -4.7 C 3.7 -4.7 3.4 -4.6 3.2 -4.3 C 2.9 -4.0 2.8 -3.6 2.8 -3.0 C 2.8 -2.5 2.9 -2.1 3.2 -1.8 C 3.4 -1.6 3.7 -1.5 4.1 -1.5 C 4.4 -1.5 4.7 -1.5 4.9 -1.7 C 5.1 -1.9 5.3 -2.1 5.4 -2.4 Z M 5.4 -2.4"></path></symbol><symbol overflow="visible" id="page4_glyph0-4"><path class="page4_style0" d="M 7.3 0.0 L 5.0 0.0 L 5.0 -1.0 C 4.7 -0.6 4.4 -0.3 4.0 -0.1 C 3.7 0.1 3.3 0.1 2.8 0.1 C 2.1 0.1 1.6 -0.1 1.2 -0.4 C 0.9 -0.8 0.7 -1.4 0.7 -2.3 L 0.7 -6.2 L 3.1 -6.2 L 3.1 -2.8 C 3.1 -2.4 3.2 -2.1 3.3 -2.0 C 3.5 -1.8 3.7 -1.7 3.9 -1.7 C 4.2 -1.7 4.4 -1.8 4.6 -2.0 C 4.8 -2.3 4.9 -2.7 4.9 -3.2 L 4.9 -6.2 L 7.3 -6.2 L 7.3 0.0 Z M 7.3 0.0"></path></symbol><symbol overflow="visible" id="page4_glyph0-5"><path class="page4_style0" d="M 0.7 -6.2 L 3.0 -6.2 L 3.0 -5.3 C 3.3 -5.7 3.6 -6.0 3.9 -6.1 C 4.3 -6.3 4.6 -6.4 5.1 -6.4 C 5.6 -6.4 6.0 -6.3 6.3 -6.1 C 6.6 -5.9 6.8 -5.7 7.0 -5.3 C 7.4 -5.7 7.7 -6.0 8.0 -6.1 C 8.3 -6.3 8.7 -6.4 9.2 -6.4 C 9.8 -6.4 10.4 -6.2 10.7 -5.8 C 11.1 -5.4 11.3 -4.8 11.3 -3.9 L 11.3 0.0 L 8.9 0.0 L 8.9 -3.5 C 8.9 -3.8 8.9 -4.0 8.8 -4.2 C 8.6 -4.4 8.4 -4.5 8.1 -4.5 C 7.9 -4.5 7.6 -4.4 7.5 -4.2 C 7.3 -4.0 7.2 -3.7 7.2 -3.2 L 7.2 0.0 L 4.8 0.0 L 4.8 -3.4 C 4.8 -3.7 4.8 -3.9 4.8 -4.0 C 4.7 -4.1 4.6 -4.3 4.5 -4.4 C 4.4 -4.5 4.2 -4.5 4.1 -4.5 C 3.8 -4.5 3.6 -4.4 3.4 -4.2 C 3.2 -4.0 3.1 -3.6 3.1 -3.2 L 3.1 0.0 L 0.7 0.0 L 0.7 -6.2 Z M 0.7 -6.2"></path></symbol><symbol overflow="visible" id="page4_glyph0-6"><path class="page4_style0" d="M 7.6 -2.5 L 2.8 -2.5 C 2.9 -2.1 3.0 -1.9 3.2 -1.7 C 3.4 -1.4 3.7 -1.3 4.1 -1.3 C 4.3 -1.3 4.5 -1.3 4.7 -1.4 C 4.9 -1.5 5.0 -1.6 5.1 -1.8 L 7.5 -1.6 C 7.1 -1.0 6.7 -0.5 6.2 -0.3 C 5.7 0.0 5.0 0.1 4.0 0.1 C 3.2 0.1 2.5 0.0 2.1 -0.2 C 1.6 -0.4 1.2 -0.8 0.9 -1.3 C 0.6 -1.8 0.4 -2.4 0.4 -3.1 C 0.4 -4.1 0.7 -4.9 1.4 -5.5 C 2.0 -6.1 2.8 -6.4 3.9 -6.4 C 4.8 -6.4 5.5 -6.2 6.0 -6.0 C 6.6 -5.7 7.0 -5.3 7.2 -4.8 C 7.5 -4.3 7.6 -3.6 7.6 -2.8 L 7.6 -2.5 Z M 5.2 -3.7 C 5.2 -4.1 5.0 -4.5 4.8 -4.7 C 4.6 -4.9 4.4 -5.0 4.0 -5.0 C 3.7 -5.0 3.4 -4.8 3.1 -4.5 C 3.0 -4.3 2.9 -4.0 2.9 -3.7 L 5.2 -3.7 Z M 5.2 -3.7"></path></symbol><symbol overflow="visible" id="page4_glyph0-7"><path class="page4_style0" d="M 0.7 -6.2 L 2.9 -6.2 L 2.9 -5.2 C 3.3 -5.6 3.6 -5.9 3.9 -6.1 C 4.3 -6.3 4.7 -6.4 5.2 -6.4 C 5.9 -6.4 6.4 -6.2 6.7 -5.8 C 7.1 -5.4 7.3 -4.8 7.3 -4.0 L 7.3 0.0 L 4.9 0.0 L 4.9 -3.4 C 4.9 -3.8 4.8 -4.1 4.7 -4.2 C 4.5 -4.4 4.3 -4.5 4.1 -4.5 C 3.8 -4.5 3.6 -4.4 3.4 -4.2 C 3.2 -4.0 3.1 -3.6 3.1 -3.0 L 3.1 0.0 L 0.7 0.0 L 0.7 -6.2 Z M 0.7 -6.2"></path></symbol><symbol overflow="visible" id="page4_glyph0-8"><path class="page4_style0" d="M 3.6 -8.6 L 3.6 -6.2 L 4.9 -6.2 L 4.9 -4.5 L 3.6 -4.5 L 3.6 -2.3 C 3.6 -2.0 3.6 -1.8 3.7 -1.8 C 3.8 -1.6 3.9 -1.5 4.1 -1.5 C 4.3 -1.5 4.5 -1.6 4.8 -1.7 L 5.0 -0.0 C 4.4 0.1 3.9 0.1 3.3 0.1 C 2.8 0.1 2.3 0.1 2.0 -0.1 C 1.8 -0.2 1.5 -0.5 1.4 -0.8 C 1.3 -1.1 1.2 -1.6 1.2 -2.3 L 1.2 -4.5 L 0.3 -4.5 L 0.3 -6.2 L 1.2 -6.2 L 1.2 -7.4 L 3.6 -8.6 Z M 3.6 -8.6"></path></symbol><symbol overflow="visible" id="page4_glyph0-9"><path class="page4_style0" d=""></path></symbol><symbol overflow="visible" id="page4_glyph0-10"><path class="page4_style0" d="M 0.9 -8.6 L 3.5 -8.6 L 3.5 -5.6 L 6.5 -5.6 L 6.5 -8.6 L 9.1 -8.6 L 9.1 0.0 L 6.5 0.0 L 6.5 -3.5 L 3.5 -3.5 L 3.5 0.0 L 0.9 0.0 L 0.9 -8.6 Z M 0.9 -8.6"></path></symbol><symbol overflow="visible" id="page4_glyph0-11"><path class="page4_style0" d="M 0.9 -8.6 L 8.0 -8.6 L 8.0 -6.8 L 3.5 -6.8 L 3.5 -5.4 L 7.7 -5.4 L 7.7 -3.6 L 3.5 -3.6 L 3.5 -2.0 L 8.1 -2.0 L 8.1 0.0 L 0.9 0.0 L 0.9 -8.6 Z M 0.9 -8.6"></path></symbol><symbol overflow="visible" id="page4_glyph0-12"><path class="page4_style0" d="M 6.2 -1.4 L 3.1 -1.4 L 2.7 0.0 L 0.0 0.0 L 3.2 -8.6 L 6.1 -8.6 L 9.4 0.0 L 6.6 0.0 L 6.2 -1.4 Z M 5.6 -3.3 L 4.7 -6.4 L 3.7 -3.3 L 5.6 -3.3 Z M 5.6 -3.3"></path></symbol><symbol overflow="visible" id="page4_glyph0-13"><path class="page4_style0" d="M 0.9 0.0 L 0.9 -8.6 L 5.3 -8.6 C 6.2 -8.6 6.8 -8.5 7.2 -8.4 C 7.7 -8.2 8.0 -8.0 8.3 -7.6 C 8.5 -7.2 8.7 -6.8 8.7 -6.2 C 8.7 -5.7 8.6 -5.3 8.4 -5.0 C 8.2 -4.6 7.9 -4.3 7.5 -4.1 C 7.3 -4.0 7.0 -3.9 6.6 -3.8 C 6.9 -3.7 7.1 -3.6 7.3 -3.5 C 7.4 -3.4 7.5 -3.3 7.7 -3.0 C 7.9 -2.8 8.0 -2.6 8.1 -2.5 L 9.4 0.0 L 6.4 0.0 L 5.0 -2.6 C 4.8 -3.0 4.6 -3.2 4.5 -3.3 C 4.3 -3.4 4.1 -3.5 3.8 -3.5 L 3.6 -3.5 L 3.6 0.0 L 0.9 0.0 Z M 3.6 -5.1 L 4.7 -5.1 C 4.8 -5.1 5.1 -5.1 5.4 -5.2 C 5.6 -5.3 5.7 -5.4 5.8 -5.5 C 5.9 -5.6 6.0 -5.8 6.0 -6.0 C 6.0 -6.3 5.9 -6.5 5.7 -6.6 C 5.6 -6.8 5.2 -6.9 4.8 -6.9 L 3.6 -6.9 L 3.6 -5.1 Z M 3.6 -5.1"></path></symbol><symbol overflow="visible" id="page4_glyph0-14"><path class="page4_style0" d="M 0.9 -8.6 L 7.5 -8.6 L 7.5 -6.8 L 3.6 -6.8 L 3.6 -5.2 L 6.9 -5.2 L 6.9 -3.5 L 3.6 -3.5 L 3.6 0.0 L 0.9 0.0 L 0.9 -8.6 Z M 0.9 -8.6"></path></symbol><symbol overflow="visible" id="page4_glyph0-15"><path class="page4_style0" d="M 0.5 -4.3 C 0.5 -5.7 0.9 -6.8 1.7 -7.6 C 2.5 -8.3 3.6 -8.7 5.0 -8.7 C 6.4 -8.7 7.5 -8.3 8.3 -7.6 C 9.1 -6.8 9.5 -5.7 9.5 -4.4 C 9.5 -3.4 9.3 -2.5 8.9 -1.9 C 8.6 -1.2 8.1 -0.7 7.5 -0.4 C 6.8 -0.0 6.0 0.1 5.1 0.1 C 4.1 0.1 3.3 -0.0 2.7 -0.3 C 2.1 -0.6 1.5 -1.1 1.1 -1.8 C 0.7 -2.4 0.5 -3.3 0.5 -4.3 Z M 3.2 -4.3 C 3.2 -3.4 3.4 -2.8 3.7 -2.4 C 4.0 -2.0 4.4 -1.8 5.0 -1.8 C 5.6 -1.8 6.0 -2.0 6.3 -2.4 C 6.6 -2.8 6.8 -3.4 6.8 -4.4 C 6.8 -5.2 6.6 -5.8 6.3 -6.2 C 6.0 -6.5 5.5 -6.7 5.0 -6.7 C 4.4 -6.7 4.0 -6.5 3.7 -6.2 C 3.4 -5.8 3.2 -5.2 3.2 -4.3 Z M 3.2 -4.3"></path></symbol><symbol overflow="visible" id="page4_glyph0-16"><path class="page4_style0" d="M 0.3 -8.6 L 8.3 -8.6 L 8.3 -6.5 L 5.6 -6.5 L 5.6 0.0 L 3.0 0.0 L 3.0 -6.5 L 0.3 -6.5 L 0.3 -8.6 Z M 0.3 -8.6"></path></symbol><symbol overflow="visible" id="page4_glyph0-17"><path class="page4_style0" d="M 0.9 -8.6 L 5.3 -8.6 C 6.2 -8.6 7.0 -8.4 7.4 -7.9 C 7.9 -7.4 8.2 -6.8 8.2 -6.0 C 8.2 -5.1 7.9 -4.4 7.4 -3.9 C 6.9 -3.4 6.1 -3.2 5.0 -3.2 L 3.5 -3.2 L 3.5 0.0 L 0.9 0.0 L 0.9 -8.6 Z M 3.5 -4.9 L 4.2 -4.9 C 4.7 -4.9 5.1 -5.0 5.3 -5.2 C 5.5 -5.4 5.6 -5.6 5.6 -5.9 C 5.6 -6.1 5.5 -6.4 5.3 -6.6 C 5.1 -6.8 4.8 -6.8 4.3 -6.8 L 3.5 -6.8 L 3.5 -4.9 Z M 3.5 -4.9"></path></symbol><symbol overflow="visible" id="page4_glyph0-18"><path class="page4_style0" d="M 2.9 -4.2 L 0.6 -4.5 C 0.7 -4.8 0.8 -5.2 1.0 -5.4 C 1.1 -5.6 1.4 -5.8 1.7 -6.0 C 1.9 -6.1 2.2 -6.2 2.6 -6.3 C 3.0 -6.3 3.4 -6.4 3.8 -6.4 C 4.5 -6.4 5.1 -6.3 5.5 -6.2 C 6.0 -6.2 6.3 -6.0 6.6 -5.8 C 6.8 -5.6 7.0 -5.3 7.1 -5.0 C 7.2 -4.7 7.3 -4.4 7.3 -4.1 L 7.3 -1.3 C 7.3 -1.0 7.3 -0.8 7.3 -0.6 C 7.4 -0.5 7.5 -0.3 7.6 0.0 L 5.4 0.0 C 5.3 -0.2 5.2 -0.3 5.2 -0.4 C 5.1 -0.5 5.1 -0.6 5.1 -0.8 C 4.8 -0.5 4.5 -0.2 4.2 -0.1 C 3.7 0.1 3.3 0.1 2.7 0.1 C 2.0 0.1 1.4 -0.0 1.0 -0.4 C 0.6 -0.7 0.4 -1.1 0.4 -1.6 C 0.4 -2.1 0.6 -2.5 0.8 -2.8 C 1.1 -3.1 1.6 -3.3 2.4 -3.5 C 3.3 -3.7 3.8 -3.8 4.1 -3.9 C 4.4 -3.9 4.7 -4.0 5.0 -4.2 C 5.0 -4.4 4.9 -4.6 4.8 -4.8 C 4.7 -4.9 4.4 -5.0 4.1 -5.0 C 3.8 -5.0 3.5 -4.9 3.3 -4.8 C 3.1 -4.7 3.0 -4.5 2.9 -4.2 Z M 5.0 -3.0 C 4.6 -2.8 4.3 -2.7 3.9 -2.6 C 3.5 -2.5 3.1 -2.4 3.0 -2.3 C 2.9 -2.1 2.8 -2.0 2.8 -1.8 C 2.8 -1.6 2.9 -1.5 3.0 -1.4 C 3.1 -1.2 3.3 -1.2 3.6 -1.2 C 3.9 -1.2 4.1 -1.2 4.3 -1.4 C 4.6 -1.5 4.7 -1.7 4.8 -1.8 C 4.9 -2.0 5.0 -2.3 5.0 -2.6 L 5.0 -3.0 Z M 5.0 -3.0"></path></symbol><symbol overflow="visible" id="page4_glyph0-19"><path class="page4_style0" d="M 5.0 -6.2 L 7.3 -6.2 L 7.3 -0.3 L 7.3 -0.1 C 7.3 0.3 7.2 0.7 7.0 1.0 C 6.9 1.4 6.7 1.7 6.4 1.9 C 6.1 2.1 5.8 2.3 5.3 2.4 C 4.9 2.5 4.4 2.5 3.9 2.5 C 2.6 2.5 1.8 2.3 1.3 2.0 C 0.8 1.6 0.6 1.1 0.6 0.5 C 0.6 0.4 0.6 0.3 0.6 0.1 L 2.9 0.4 C 3.0 0.6 3.1 0.8 3.2 0.8 C 3.4 1.0 3.6 1.0 3.9 1.0 C 4.2 1.0 4.5 0.9 4.6 0.8 C 4.8 0.6 4.9 0.3 4.9 -0.2 L 4.9 -1.2 C 4.6 -0.9 4.4 -0.7 4.2 -0.5 C 3.8 -0.3 3.4 -0.2 3.0 -0.2 C 2.1 -0.2 1.5 -0.6 1.0 -1.3 C 0.6 -1.9 0.4 -2.5 0.4 -3.4 C 0.4 -4.4 0.7 -5.1 1.1 -5.6 C 1.6 -6.1 2.2 -6.4 3.0 -6.4 C 3.5 -6.4 3.9 -6.3 4.2 -6.1 C 4.5 -6.0 4.8 -5.7 5.0 -5.3 L 5.0 -6.2 Z M 2.8 -3.2 C 2.8 -2.8 2.9 -2.4 3.1 -2.2 C 3.3 -2.0 3.5 -1.9 3.8 -1.9 C 4.1 -1.9 4.4 -2.0 4.6 -2.2 C 4.8 -2.4 4.9 -2.8 4.9 -3.2 C 4.9 -3.7 4.8 -4.0 4.6 -4.3 C 4.4 -4.5 4.1 -4.6 3.8 -4.6 C 3.5 -4.6 3.3 -4.5 3.1 -4.3 C 2.9 -4.1 2.8 -3.7 2.8 -3.2 Z M 2.8 -3.2"></path></symbol><symbol overflow="visible" id="page4_glyph0-20"><path class="page4_style0" d="M 0.9 -8.6 L 3.4 -8.6 L 6.6 -3.8 L 6.6 -8.6 L 9.1 -8.6 L 9.1 0.0 L 6.6 0.0 L 3.4 -4.7 L 3.4 0.0 L 0.9 0.0 L 0.9 -8.6 Z M 0.9 -8.6"></path></symbol><symbol overflow="visible" id="page4_glyph0-21"><path class="page4_style0" d="M 0.7 -2.4 L 3.3 -2.4 L 3.3 0.0 L 0.7 0.0 L 0.7 -2.4 Z M 0.7 -2.4"></path></symbol><symbol overflow="visible" id="page4_glyph1-0"><path class="page4_style0" d="M 1.7 0.0 L 1.7 -7.5 L 7.7 -7.5 L 7.7 0.0 L 1.7 0.0 Z M 1.9 -0.2 L 7.5 -0.2 L 7.5 -7.3 L 1.9 -7.3 L 1.9 -0.2 Z M 1.9 -0.2"></path></symbol><symbol overflow="visible" id="page4_glyph1-1"><path class="page4_style0" d="M 0.3 -3.0 L 4.1 -8.1 L 4.8 -8.1 L 4.8 -3.0 L 5.5 -3.0 L 5.5 -1.8 L 4.8 -1.8 L 4.8 0.0 L 3.2 0.0 L 3.2 -1.8 L 0.3 -1.8 L 0.3 -3.0 Z M 0.9 -3.0 L 3.2 -3.0 L 3.2 -6.1 L 0.9 -3.0 Z M 0.9 -3.0"></path></symbol><symbol overflow="visible" id="page4_glyph2-0"><path class="page4_style0" d=""></path></symbol><symbol overflow="visible" id="page4_glyph2-1"><path class="page4_style0" d=""></path></symbol><symbol overflow="visible" id="page4_glyph3-0"><path class="page4_style0" d="M 1.5 0.0 L 1.5 -7.5 L 7.5 -7.5 L 7.5 0.0 L 1.5 0.0 Z M 1.7 -0.2 L 7.3 -0.2 L 7.3 -7.3 L 1.7 -7.3 L 1.7 -0.2 Z M 1.7 -0.2"></path></symbol><symbol overflow="visible" id="page4_glyph3-1"><path class="page4_style0" d="M 0.5 0.0 L 2.3 -8.6 L 3.4 -8.6 L 1.8 -1.0 L 6.3 -1.0 L 6.1 0.0 L 0.5 0.0 Z M 0.5 0.0"></path></symbol><symbol overflow="visible" id="page4_glyph3-2"><path class="page4_style0" d="M 0.6 -2.4 C 0.6 -3.6 0.9 -4.6 1.7 -5.4 C 2.2 -6.0 3.0 -6.4 4.0 -6.4 C 4.7 -6.4 5.3 -6.1 5.8 -5.7 C 6.3 -5.2 6.5 -4.6 6.5 -3.8 C 6.5 -3.0 6.3 -2.4 6.0 -1.8 C 5.8 -1.1 5.3 -0.7 4.8 -0.3 C 4.3 -0.0 3.7 0.1 3.1 0.1 C 2.6 0.1 2.2 0.0 1.8 -0.2 C 1.4 -0.4 1.1 -0.7 0.9 -1.0 C 0.7 -1.4 0.6 -1.9 0.6 -2.4 Z M 1.6 -2.5 C 1.6 -1.9 1.8 -1.4 2.1 -1.1 C 2.3 -0.8 2.7 -0.7 3.1 -0.7 C 3.4 -0.7 3.6 -0.7 3.8 -0.8 C 4.0 -0.9 4.2 -1.0 4.4 -1.2 C 4.6 -1.4 4.8 -1.6 4.9 -1.9 C 5.1 -2.1 5.2 -2.4 5.2 -2.7 C 5.4 -3.0 5.4 -3.4 5.4 -3.8 C 5.4 -4.3 5.3 -4.8 5.0 -5.1 C 4.7 -5.4 4.4 -5.5 3.9 -5.5 C 3.6 -5.5 3.3 -5.5 3.0 -5.3 C 2.8 -5.1 2.5 -4.9 2.3 -4.6 C 2.1 -4.3 1.9 -4.0 1.8 -3.5 C 1.7 -3.1 1.6 -2.8 1.6 -2.5 Z M 1.6 -2.5"></path></symbol><symbol overflow="visible" id="page4_glyph3-3"><path class="page4_style0" d="M 0.4 0.0 L 1.7 -6.2 L 2.6 -6.2 L 2.4 -5.0 C 2.7 -5.4 3.0 -5.8 3.3 -6.0 C 3.6 -6.2 3.9 -6.4 4.2 -6.4 C 4.5 -6.4 4.7 -6.3 5.0 -6.1 L 4.6 -5.2 C 4.4 -5.3 4.2 -5.3 4.0 -5.3 C 3.6 -5.3 3.2 -5.1 2.8 -4.7 C 2.5 -4.3 2.2 -3.6 1.9 -2.5 L 1.4 0.0 L 0.4 0.0 Z M 0.4 0.0"></path></symbol><symbol overflow="visible" id="page4_glyph3-4"><path class="page4_style0" d="M 5.0 -2.1 L 6.0 -2.0 C 5.9 -1.5 5.5 -1.0 5.0 -0.5 C 4.4 -0.1 3.8 0.1 3.1 0.1 C 2.6 0.1 2.2 0.0 1.8 -0.2 C 1.4 -0.4 1.1 -0.7 0.9 -1.1 C 0.7 -1.5 0.6 -2.0 0.6 -2.5 C 0.6 -3.2 0.8 -3.8 1.1 -4.5 C 1.4 -5.1 1.8 -5.6 2.3 -5.9 C 2.8 -6.2 3.4 -6.4 3.9 -6.4 C 4.7 -6.4 5.3 -6.1 5.7 -5.7 C 6.1 -5.2 6.4 -4.6 6.4 -3.8 C 6.4 -3.5 6.3 -3.2 6.3 -2.8 L 1.7 -2.8 C 1.7 -2.7 1.7 -2.6 1.7 -2.5 C 1.7 -1.9 1.8 -1.5 2.1 -1.2 C 2.4 -0.9 2.7 -0.7 3.1 -0.7 C 3.4 -0.7 3.8 -0.8 4.1 -1.1 C 4.5 -1.3 4.8 -1.7 5.0 -2.1 Z M 1.9 -3.7 L 5.4 -3.7 C 5.4 -3.8 5.4 -3.8 5.4 -3.9 C 5.4 -4.4 5.3 -4.8 5.0 -5.1 C 4.7 -5.4 4.4 -5.5 4.0 -5.5 C 3.5 -5.5 3.1 -5.4 2.7 -5.1 C 2.3 -4.8 2.1 -4.3 1.9 -3.7 Z M 1.9 -3.7"></path></symbol><symbol overflow="visible" id="page4_glyph3-5"><path class="page4_style0" d="M 0.4 0.0 L 1.7 -6.2 L 2.8 -6.2 L 2.5 -5.2 C 2.9 -5.6 3.3 -5.9 3.6 -6.1 C 3.9 -6.3 4.2 -6.4 4.6 -6.4 C 5.0 -6.4 5.3 -6.3 5.6 -6.0 C 5.8 -5.8 6.0 -5.6 6.1 -5.2 C 6.4 -5.6 6.7 -5.9 7.1 -6.1 C 7.4 -6.3 7.8 -6.4 8.2 -6.4 C 8.7 -6.4 9.1 -6.2 9.4 -6.0 C 9.6 -5.7 9.8 -5.4 9.8 -5.0 C 9.8 -4.8 9.7 -4.5 9.6 -4.0 L 8.8 0.0 L 7.7 0.0 L 8.6 -4.1 C 8.6 -4.5 8.7 -4.7 8.7 -4.8 C 8.7 -5.0 8.6 -5.2 8.5 -5.3 C 8.4 -5.4 8.2 -5.5 8.0 -5.5 C 7.6 -5.5 7.3 -5.4 7.0 -5.2 C 6.6 -5.0 6.4 -4.8 6.2 -4.5 C 6.0 -4.1 5.9 -3.7 5.7 -3.0 L 5.1 0.0 L 4.0 0.0 L 4.9 -4.2 C 5.0 -4.5 5.0 -4.7 5.0 -4.8 C 5.0 -5.0 5.0 -5.2 4.8 -5.3 C 4.7 -5.4 4.5 -5.5 4.3 -5.5 C 4.0 -5.5 3.7 -5.4 3.4 -5.2 C 3.1 -5.0 2.8 -4.8 2.6 -4.4 C 2.4 -4.1 2.2 -3.6 2.1 -2.9 L 1.5 0.0 L 0.4 0.0 Z M 0.4 0.0"></path></symbol><symbol overflow="visible" id="page4_glyph3-6"><path class="page4_style0" d=""></path></symbol><symbol overflow="visible" id="page4_glyph3-7"><path class="page4_style0" d="M 1.9 -7.4 L 2.2 -8.6 L 3.2 -8.6 L 3.0 -7.4 L 1.9 -7.4 Z M 0.4 0.0 L 1.7 -6.2 L 2.7 -6.2 L 1.4 0.0 L 0.4 0.0 Z M 0.4 0.0"></path></symbol><symbol overflow="visible" id="page4_glyph3-8"><path class="page4_style0" d="M -0.1 2.4 L 1.7 -6.2 L 2.7 -6.2 L 2.5 -5.4 C 2.8 -5.7 3.2 -6.0 3.4 -6.1 C 3.7 -6.3 4.0 -6.4 4.4 -6.4 C 5.0 -6.4 5.4 -6.1 5.8 -5.7 C 6.2 -5.3 6.4 -4.7 6.4 -3.9 C 6.4 -3.2 6.3 -2.6 6.1 -2.1 C 5.9 -1.6 5.6 -1.1 5.3 -0.8 C 5.0 -0.5 4.7 -0.2 4.4 -0.1 C 4.0 0.1 3.7 0.1 3.4 0.1 C 2.6 0.1 2.0 -0.2 1.6 -1.0 L 0.9 2.4 L -0.1 2.4 Z M 2.0 -2.5 C 2.0 -2.1 2.0 -1.8 2.1 -1.6 C 2.2 -1.3 2.3 -1.1 2.5 -1.0 C 2.8 -0.8 3.0 -0.7 3.3 -0.7 C 3.9 -0.7 4.4 -1.1 4.8 -1.8 C 5.2 -2.4 5.4 -3.1 5.4 -3.9 C 5.4 -4.4 5.2 -4.8 5.0 -5.1 C 4.7 -5.4 4.4 -5.5 4.0 -5.5 C 3.8 -5.5 3.5 -5.4 3.3 -5.3 C 3.1 -5.1 2.9 -4.9 2.7 -4.7 C 2.5 -4.4 2.3 -4.0 2.2 -3.6 C 2.0 -3.2 2.0 -2.8 2.0 -2.5 Z M 2.0 -2.5"></path></symbol><symbol overflow="visible" id="page4_glyph3-9"><path class="page4_style0" d="M 0.5 -2.1 L 1.6 -2.2 C 1.6 -1.9 1.6 -1.6 1.7 -1.4 C 1.8 -1.2 2.0 -1.0 2.2 -0.9 C 2.5 -0.8 2.8 -0.7 3.1 -0.7 C 3.6 -0.7 3.9 -0.8 4.1 -1.0 C 4.4 -1.2 4.5 -1.4 4.5 -1.6 C 4.5 -1.8 4.4 -2.0 4.3 -2.1 C 4.1 -2.3 3.8 -2.5 3.2 -2.8 C 2.7 -3.0 2.3 -3.2 2.2 -3.3 C 1.9 -3.4 1.7 -3.6 1.6 -3.8 C 1.4 -4.0 1.4 -4.3 1.4 -4.6 C 1.4 -5.1 1.6 -5.5 2.0 -5.8 C 2.3 -6.2 2.9 -6.4 3.6 -6.4 C 4.4 -6.4 5.0 -6.2 5.4 -5.8 C 5.8 -5.5 6.0 -5.0 6.0 -4.4 L 5.0 -4.3 C 5.0 -4.7 4.8 -5.0 4.6 -5.2 C 4.3 -5.4 4.0 -5.5 3.5 -5.5 C 3.1 -5.5 2.9 -5.5 2.7 -5.3 C 2.5 -5.1 2.4 -4.9 2.4 -4.8 C 2.4 -4.6 2.4 -4.4 2.6 -4.2 C 2.7 -4.1 3.0 -4.0 3.5 -3.8 C 4.3 -3.4 4.9 -3.1 5.1 -2.9 C 5.4 -2.6 5.6 -2.2 5.6 -1.8 C 5.6 -1.4 5.5 -1.1 5.3 -0.8 C 5.1 -0.5 4.8 -0.3 4.4 -0.1 C 4.0 0.1 3.6 0.1 3.0 0.1 C 2.3 0.1 1.7 -0.0 1.2 -0.4 C 0.7 -0.7 0.5 -1.3 0.5 -2.1 Z M 0.5 -2.1"></path></symbol><symbol overflow="visible" id="page4_glyph3-10"><path class="page4_style0" d="M 4.6 -1.1 C 3.9 -0.3 3.1 0.1 2.4 0.1 C 1.9 0.1 1.5 0.0 1.2 -0.3 C 0.9 -0.5 0.8 -0.9 0.8 -1.3 C 0.8 -1.5 0.8 -2.0 1.0 -2.6 L 1.7 -6.2 L 2.8 -6.2 L 1.9 -2.2 C 1.9 -1.9 1.8 -1.7 1.8 -1.5 C 1.8 -1.2 1.9 -1.1 2.0 -0.9 C 2.2 -0.8 2.4 -0.7 2.7 -0.7 C 3.0 -0.7 3.2 -0.8 3.5 -0.9 C 3.8 -1.1 4.1 -1.3 4.3 -1.5 C 4.5 -1.8 4.6 -2.1 4.8 -2.4 C 4.9 -2.6 5.0 -3.0 5.1 -3.5 L 5.6 -6.2 L 6.7 -6.2 L 5.4 0.0 L 4.4 0.0 L 4.6 -1.1 Z M 4.6 -1.1"></path></symbol><symbol overflow="visible" id="page4_glyph3-11"><path class="page4_style0" d="M 4.6 -0.9 C 4.0 -0.2 3.4 0.1 2.7 0.1 C 2.1 0.1 1.6 -0.1 1.2 -0.5 C 0.8 -1.0 0.6 -1.6 0.6 -2.4 C 0.6 -3.2 0.8 -3.9 1.1 -4.5 C 1.4 -5.1 1.8 -5.6 2.3 -5.9 C 2.7 -6.2 3.2 -6.4 3.7 -6.4 C 4.4 -6.4 5.0 -6.0 5.4 -5.2 L 6.1 -8.6 L 7.2 -8.6 L 5.4 0.0 L 4.4 0.0 L 4.6 -0.9 Z M 1.7 -2.6 C 1.7 -2.2 1.7 -1.8 1.8 -1.6 C 1.9 -1.3 2.1 -1.1 2.2 -1.0 C 2.5 -0.8 2.7 -0.7 3.0 -0.7 C 3.5 -0.7 3.9 -1.0 4.3 -1.5 C 4.8 -2.1 5.1 -2.9 5.1 -3.9 C 5.1 -4.4 5.0 -4.8 4.7 -5.1 C 4.4 -5.3 4.1 -5.5 3.7 -5.5 C 3.5 -5.5 3.2 -5.4 3.0 -5.3 C 2.8 -5.2 2.6 -5.0 2.4 -4.8 C 2.2 -4.5 2.0 -4.1 1.9 -3.7 C 1.8 -3.3 1.7 -2.9 1.7 -2.6 Z M 1.7 -2.6"></path></symbol><symbol overflow="visible" id="page4_glyph3-12"><path class="page4_style0" d="M 0.3 0.0 L 2.1 -8.6 L 3.2 -8.6 L 1.4 0.0 L 0.3 0.0 Z M 0.3 0.0"></path></symbol><symbol overflow="visible" id="page4_glyph3-13"><path class="page4_style0" d="M 2.9 -0.9 L 2.7 0.0 C 2.5 0.1 2.2 0.1 2.0 0.1 C 1.5 0.1 1.2 0.0 1.0 -0.2 C 0.8 -0.4 0.7 -0.6 0.7 -0.8 C 0.7 -1.0 0.7 -1.3 0.8 -1.8 L 1.6 -5.4 L 0.8 -5.4 L 0.9 -6.2 L 1.8 -6.2 L 2.1 -7.8 L 3.3 -8.5 L 2.8 -6.2 L 3.9 -6.2 L 3.7 -5.4 L 2.6 -5.4 L 1.9 -2.0 C 1.8 -1.5 1.8 -1.3 1.8 -1.2 C 1.8 -1.0 1.8 -1.0 1.9 -0.9 C 2.0 -0.8 2.1 -0.8 2.2 -0.8 C 2.5 -0.8 2.7 -0.8 2.9 -0.9 Z M 2.9 -0.9"></path></symbol><symbol overflow="visible" id="page4_glyph3-14"><path class="page4_style0" d="M 4.6 -0.8 C 4.2 -0.5 3.9 -0.2 3.5 -0.1 C 3.2 0.1 2.8 0.1 2.4 0.1 C 1.9 0.1 1.4 -0.0 1.0 -0.4 C 0.7 -0.7 0.5 -1.1 0.5 -1.7 C 0.5 -2.0 0.6 -2.3 0.8 -2.6 C 0.9 -2.8 1.1 -3.1 1.4 -3.2 C 1.6 -3.4 2.0 -3.5 2.4 -3.6 C 2.6 -3.6 3.1 -3.7 3.7 -3.7 C 4.4 -3.7 4.9 -3.8 5.1 -3.9 C 5.2 -4.2 5.3 -4.4 5.3 -4.6 C 5.3 -4.9 5.2 -5.1 5.0 -5.2 C 4.8 -5.4 4.4 -5.5 3.9 -5.5 C 3.5 -5.5 3.1 -5.4 2.8 -5.2 C 2.5 -5.0 2.3 -4.7 2.2 -4.4 L 1.1 -4.5 C 1.4 -5.1 1.7 -5.5 2.2 -5.9 C 2.6 -6.2 3.2 -6.4 4.0 -6.4 C 4.7 -6.4 5.3 -6.2 5.8 -5.8 C 6.1 -5.5 6.3 -5.2 6.3 -4.8 C 6.3 -4.4 6.3 -4.0 6.2 -3.6 L 5.8 -2.0 C 5.7 -1.6 5.7 -1.2 5.7 -0.8 C 5.7 -0.6 5.7 -0.4 5.8 0.0 L 4.7 0.0 C 4.7 -0.2 4.6 -0.5 4.6 -0.8 Z M 5.0 -3.2 C 4.8 -3.1 4.7 -3.0 4.5 -3.0 C 4.3 -3.0 4.1 -3.0 3.7 -2.9 C 3.0 -2.9 2.6 -2.8 2.3 -2.7 C 2.1 -2.6 1.9 -2.5 1.8 -2.3 C 1.6 -2.1 1.6 -1.9 1.6 -1.7 C 1.6 -1.4 1.7 -1.2 1.9 -1.0 C 2.1 -0.8 2.4 -0.7 2.8 -0.7 C 3.1 -0.7 3.5 -0.8 3.8 -1.0 C 4.1 -1.1 4.4 -1.4 4.5 -1.7 C 4.7 -2.1 4.9 -2.5 5.0 -3.2 Z M 5.0 -3.2"></path></symbol><symbol overflow="visible" id="page4_glyph3-15"><path class="page4_style0" d="M 0.7 0.0 L 0.9 -1.2 L 2.1 -1.2 L 1.9 -0.2 C 1.8 0.5 1.5 0.9 1.3 1.2 C 1.0 1.5 0.7 1.7 0.3 1.7 L 0.4 1.3 C 0.8 1.1 1.2 0.7 1.3 0.0 L 0.7 0.0 Z M 0.7 0.0"></path></symbol><symbol overflow="visible" id="page4_glyph3-16"><path class="page4_style0" d="M 4.7 -2.3 L 5.8 -2.2 C 5.5 -1.4 5.1 -0.8 4.6 -0.4 C 4.1 -0.0 3.6 0.1 3.0 0.1 C 2.3 0.1 1.7 -0.1 1.3 -0.5 C 0.9 -1.0 0.7 -1.6 0.7 -2.3 C 0.7 -3.0 0.8 -3.7 1.1 -4.4 C 1.3 -5.0 1.7 -5.5 2.2 -5.8 C 2.7 -6.2 3.3 -6.4 4.0 -6.4 C 4.6 -6.4 5.1 -6.2 5.5 -5.8 C 5.9 -5.4 6.1 -4.9 6.1 -4.3 L 5.1 -4.2 C 5.1 -4.6 5.0 -4.9 4.7 -5.2 C 4.5 -5.4 4.2 -5.5 3.9 -5.5 C 3.4 -5.5 3.1 -5.3 2.8 -5.1 C 2.4 -4.8 2.2 -4.4 2.0 -3.9 C 1.8 -3.3 1.8 -2.8 1.8 -2.3 C 1.8 -1.8 1.9 -1.3 2.1 -1.1 C 2.3 -0.8 2.6 -0.7 3.0 -0.7 C 3.3 -0.7 3.6 -0.8 4.0 -1.1 C 4.3 -1.3 4.5 -1.7 4.7 -2.3 Z M 4.7 -2.3"></path></symbol><symbol overflow="visible" id="page4_glyph3-17"><path class="page4_style0" d="M 0.4 0.0 L 1.7 -6.2 L 2.7 -6.2 L 2.4 -5.1 C 2.9 -5.6 3.2 -5.9 3.6 -6.1 C 4.0 -6.3 4.3 -6.4 4.7 -6.4 C 5.2 -6.4 5.6 -6.2 5.9 -6.0 C 6.2 -5.7 6.3 -5.3 6.3 -4.9 C 6.3 -4.6 6.3 -4.3 6.2 -3.8 L 5.4 0.0 L 4.3 0.0 L 5.2 -3.9 C 5.2 -4.3 5.3 -4.6 5.3 -4.8 C 5.3 -5.0 5.2 -5.2 5.1 -5.3 C 4.9 -5.4 4.7 -5.5 4.5 -5.5 C 3.9 -5.5 3.4 -5.3 3.0 -4.9 C 2.6 -4.5 2.3 -3.8 2.1 -2.9 L 1.5 0.0 L 0.4 0.0 Z M 0.4 0.0"></path></symbol><symbol overflow="visible" id="page4_glyph3-18"><path class="page4_style0" d="M 0.3 0.6 L 1.4 0.7 C 1.4 0.9 1.4 1.1 1.5 1.2 C 1.6 1.3 1.7 1.4 1.8 1.5 C 2.0 1.6 2.3 1.6 2.6 1.6 C 3.2 1.6 3.7 1.5 3.9 1.1 C 4.1 0.9 4.3 0.4 4.5 -0.3 L 4.6 -0.8 C 4.0 -0.3 3.4 0.0 2.8 0.0 C 2.2 0.0 1.6 -0.2 1.2 -0.7 C 0.8 -1.2 0.6 -1.8 0.6 -2.7 C 0.6 -3.4 0.8 -4.0 1.1 -4.6 C 1.4 -5.2 1.8 -5.6 2.3 -5.9 C 2.7 -6.2 3.2 -6.4 3.7 -6.4 C 4.5 -6.4 5.1 -6.0 5.6 -5.2 L 5.8 -6.2 L 6.8 -6.2 L 5.5 -0.2 C 5.4 0.4 5.2 1.0 5.0 1.3 C 4.8 1.7 4.4 2.0 4.0 2.2 C 3.6 2.4 3.2 2.5 2.7 2.5 C 2.2 2.5 1.7 2.4 1.4 2.3 C 1.0 2.2 0.8 2.0 0.6 1.7 C 0.4 1.5 0.3 1.2 0.3 0.9 C 0.3 0.8 0.3 0.7 0.3 0.6 Z M 1.7 -2.8 C 1.7 -2.3 1.7 -2.0 1.8 -1.8 C 1.9 -1.5 2.1 -1.3 2.3 -1.1 C 2.5 -1.0 2.7 -0.9 3.0 -0.9 C 3.4 -0.9 3.7 -1.0 4.0 -1.2 C 4.4 -1.5 4.7 -1.8 4.9 -2.4 C 5.1 -2.9 5.2 -3.4 5.2 -3.8 C 5.2 -4.3 5.1 -4.7 4.8 -5.0 C 4.5 -5.4 4.1 -5.5 3.7 -5.5 C 3.5 -5.5 3.2 -5.4 3.0 -5.3 C 2.7 -5.2 2.5 -5.0 2.3 -4.7 C 2.1 -4.4 1.9 -4.1 1.8 -3.7 C 1.7 -3.3 1.7 -3.0 1.7 -2.8 Z M 1.7 -2.8"></path></symbol><symbol overflow="visible" id="page4_glyph3-19"><path class="page4_style0" d="M 0.7 0.0 L 0.9 -1.2 L 2.1 -1.2 L 1.9 0.0 L 0.7 0.0 Z M 0.7 0.0"></path></symbol><symbol overflow="visible" id="page4_glyph3-20"><path class="page4_style0" d="M 0.7 0.0 L 2.5 -8.6 L 3.6 -8.6 L 1.8 0.0 L 0.7 0.0 Z M 0.7 0.0"></path></symbol><symbol overflow="visible" id="page4_glyph3-21"><path class="page4_style0" d="M 0.4 0.0 L 2.2 -8.6 L 3.2 -8.6 L 2.6 -5.3 C 3.0 -5.7 3.3 -5.9 3.7 -6.1 C 4.0 -6.3 4.4 -6.4 4.7 -6.4 C 5.2 -6.4 5.6 -6.2 5.9 -6.0 C 6.2 -5.7 6.3 -5.3 6.3 -4.9 C 6.3 -4.7 6.3 -4.3 6.2 -3.7 L 5.4 0.0 L 4.3 0.0 L 5.1 -3.8 C 5.2 -4.3 5.3 -4.7 5.3 -4.8 C 5.3 -5.0 5.2 -5.2 5.1 -5.3 C 4.9 -5.4 4.7 -5.5 4.5 -5.5 C 4.1 -5.5 3.7 -5.4 3.4 -5.2 C 3.0 -5.0 2.8 -4.7 2.6 -4.4 C 2.4 -4.0 2.2 -3.5 2.0 -2.7 L 1.5 0.0 L 0.4 0.0 Z M 0.4 0.0"></path></symbol><symbol overflow="visible" id="page4_glyph3-22"><path class="page4_style0" d="M 0.5 0.0 L 2.3 -8.6 L 4.9 -8.6 C 5.5 -8.6 6.0 -8.5 6.3 -8.5 C 6.8 -8.3 7.2 -8.1 7.5 -7.8 C 7.9 -7.5 8.1 -7.1 8.3 -6.6 C 8.5 -6.2 8.5 -5.7 8.5 -5.1 C 8.5 -4.4 8.4 -3.8 8.2 -3.2 C 8.0 -2.6 7.8 -2.1 7.4 -1.7 C 7.1 -1.3 6.7 -0.9 6.3 -0.7 C 6.0 -0.4 5.5 -0.3 5.0 -0.1 C 4.7 -0.0 4.2 0.0 3.6 0.0 L 0.5 0.0 Z M 1.9 -1.0 L 3.2 -1.0 C 3.9 -1.0 4.4 -1.0 4.9 -1.1 C 5.2 -1.2 5.4 -1.3 5.6 -1.5 C 5.9 -1.6 6.2 -1.9 6.4 -2.2 C 6.7 -2.5 6.9 -3.0 7.1 -3.5 C 7.3 -4.0 7.4 -4.5 7.4 -5.1 C 7.4 -5.8 7.3 -6.4 7.0 -6.7 C 6.8 -7.1 6.5 -7.4 6.1 -7.5 C 5.8 -7.6 5.4 -7.6 4.8 -7.6 L 3.3 -7.6 L 1.9 -1.0 Z M 1.9 -1.0"></path></symbol><symbol overflow="visible" id="page4_glyph3-23"><path class="page4_style0" d="M 2.0 0.0 L 1.0 -6.2 L 2.0 -6.2 L 2.5 -2.8 C 2.6 -2.4 2.6 -1.8 2.7 -1.0 C 2.9 -1.4 3.2 -1.9 3.5 -2.5 L 5.6 -6.2 L 6.7 -6.2 L 3.1 0.0 L 2.0 0.0 Z M 2.0 0.0"></path></symbol><symbol overflow="visible" id="page4_glyph3-24"><path class="page4_style0" d="M 0.4 0.0 L 2.2 -8.6 L 3.2 -8.6 L 2.6 -5.5 C 3.0 -5.8 3.3 -6.0 3.5 -6.2 C 3.8 -6.3 4.1 -6.4 4.4 -6.4 C 5.0 -6.4 5.4 -6.1 5.8 -5.7 C 6.2 -5.3 6.4 -4.6 6.4 -3.8 C 6.4 -3.3 6.3 -2.8 6.2 -2.3 C 6.0 -1.9 5.8 -1.5 5.6 -1.2 C 5.4 -0.8 5.1 -0.6 4.9 -0.4 C 4.6 -0.2 4.4 -0.1 4.1 0.0 C 3.9 0.1 3.6 0.1 3.4 0.1 C 3.0 0.1 2.6 0.0 2.3 -0.2 C 2.0 -0.4 1.8 -0.7 1.6 -1.2 L 1.3 0.0 L 0.4 0.0 Z M 2.0 -2.6 L 2.0 -2.4 C 2.0 -1.8 2.1 -1.4 2.3 -1.1 C 2.6 -0.9 2.9 -0.7 3.3 -0.7 C 3.7 -0.7 4.0 -0.9 4.3 -1.1 C 4.6 -1.4 4.9 -1.8 5.1 -2.3 C 5.3 -2.9 5.4 -3.4 5.4 -3.9 C 5.4 -4.4 5.2 -4.8 5.0 -5.1 C 4.8 -5.4 4.4 -5.5 4.1 -5.5 C 3.7 -5.5 3.3 -5.4 3.0 -5.1 C 2.7 -4.8 2.4 -4.3 2.2 -3.7 C 2.0 -3.2 2.0 -2.9 2.0 -2.6 Z M 2.0 -2.6"></path></symbol><symbol overflow="visible" id="page4_glyph3-25"><path class="page4_style0" d="M 0.5 0.0 L 1.7 -5.4 L 0.7 -5.4 L 0.9 -6.2 L 1.8 -6.2 L 2.0 -7.1 C 2.1 -7.5 2.2 -7.9 2.3 -8.1 C 2.4 -8.3 2.6 -8.4 2.8 -8.5 C 3.0 -8.7 3.3 -8.7 3.7 -8.7 C 4.0 -8.7 4.4 -8.7 4.9 -8.6 L 4.7 -7.6 C 4.3 -7.7 4.0 -7.8 3.8 -7.8 C 3.6 -7.8 3.4 -7.7 3.3 -7.6 C 3.2 -7.5 3.1 -7.3 3.0 -6.9 L 2.9 -6.2 L 4.1 -6.2 L 3.9 -5.4 L 2.7 -5.4 L 1.6 0.0 L 0.5 0.0 Z M 0.5 0.0"></path></symbol><symbol overflow="visible" id="page4_glyph3-26"><path class="page4_style0" d="M 0.5 0.0 L 2.3 -8.6 L 3.7 -8.6 L 4.6 -3.0 C 4.7 -2.3 4.8 -1.6 4.8 -0.9 C 5.1 -1.5 5.5 -2.3 6.0 -3.3 L 9.0 -8.6 L 10.5 -8.6 L 8.7 0.0 L 7.5 0.0 L 8.4 -4.2 C 8.6 -5.1 8.9 -6.2 9.3 -7.4 C 9.1 -6.9 8.8 -6.3 8.4 -5.6 L 5.2 0.0 L 4.1 0.0 L 3.2 -5.5 C 3.2 -6.0 3.1 -6.6 3.1 -7.3 C 3.0 -6.5 2.9 -5.9 2.8 -5.5 L 1.6 0.0 L 0.5 0.0 Z M 0.5 0.0"></path></symbol><symbol overflow="visible" id="page4_glyph3-27"><path class="page4_style0" d="M 0.5 0.0 L 2.3 -8.6 L 5.9 -8.6 C 6.5 -8.6 7.0 -8.5 7.3 -8.4 C 7.6 -8.2 7.9 -8.0 8.1 -7.6 C 8.3 -7.3 8.4 -6.9 8.4 -6.5 C 8.4 -6.1 8.3 -5.8 8.2 -5.4 C 8.0 -5.0 7.8 -4.7 7.6 -4.5 C 7.4 -4.2 7.2 -4.1 6.9 -3.9 C 6.7 -3.8 6.5 -3.7 6.2 -3.7 C 5.7 -3.6 5.1 -3.5 4.5 -3.5 L 2.4 -3.5 L 1.7 0.0 L 0.5 0.0 Z M 2.6 -4.5 L 4.5 -4.5 C 5.2 -4.5 5.8 -4.5 6.1 -4.7 C 6.5 -4.9 6.7 -5.1 6.9 -5.4 C 7.1 -5.7 7.2 -6.1 7.2 -6.5 C 7.2 -6.7 7.2 -7.0 7.1 -7.1 C 7.0 -7.3 6.8 -7.4 6.6 -7.5 C 6.4 -7.6 6.0 -7.7 5.5 -7.7 L 3.3 -7.7 L 2.6 -4.5 Z M 2.6 -4.5"></path></symbol><symbol overflow="visible" id="page4_glyph3-28"><path class="page4_style0" d="M 4.4 -0.7 C 3.8 -0.1 3.2 0.1 2.7 0.1 C 2.1 0.1 1.6 -0.1 1.2 -0.5 C 0.8 -1.0 0.6 -1.6 0.6 -2.4 C 0.6 -3.2 0.8 -3.9 1.1 -4.5 C 1.4 -5.1 1.8 -5.6 2.2 -5.9 C 2.7 -6.2 3.2 -6.4 3.7 -6.4 C 4.1 -6.4 4.4 -6.2 4.7 -6.0 C 5.0 -5.8 5.3 -5.5 5.5 -5.1 L 5.7 -6.2 L 6.6 -6.2 L 4.8 2.4 L 3.8 2.4 L 4.4 -0.7 Z M 1.7 -2.5 C 1.7 -1.9 1.8 -1.5 2.0 -1.2 C 2.3 -0.9 2.6 -0.7 3.0 -0.7 C 3.3 -0.7 3.6 -0.9 4.0 -1.1 C 4.3 -1.4 4.6 -1.8 4.8 -2.3 C 5.0 -2.9 5.1 -3.4 5.1 -3.9 C 5.1 -4.4 4.9 -4.8 4.7 -5.0 C 4.4 -5.3 4.1 -5.5 3.7 -5.5 C 3.4 -5.5 3.0 -5.4 2.8 -5.1 C 2.4 -4.8 2.1 -4.4 1.9 -3.8 C 1.8 -3.3 1.7 -2.9 1.7 -2.5 Z M 1.7 -2.5"></path></symbol><symbol overflow="visible" id="page4_glyph3-29"><path class="page4_style0" d="M 7.2 -0.7 C 7.5 -0.3 7.9 -0.0 8.4 0.3 L 7.9 1.0 C 7.4 0.6 6.9 0.2 6.5 -0.2 C 5.9 0.0 5.4 0.2 4.9 0.2 C 4.4 0.2 4.0 0.1 3.5 -0.1 C 3.0 -0.2 2.5 -0.5 2.2 -0.8 C 1.9 -1.1 1.6 -1.6 1.4 -2.1 C 1.2 -2.6 1.1 -3.1 1.1 -3.8 C 1.1 -4.5 1.2 -5.2 1.5 -5.9 C 1.8 -6.5 2.1 -6.9 2.5 -7.3 C 2.8 -7.8 3.3 -8.1 3.7 -8.3 C 4.3 -8.6 5.0 -8.7 5.7 -8.7 C 6.7 -8.7 7.6 -8.4 8.3 -7.7 C 8.9 -7.0 9.3 -6.1 9.3 -4.9 C 9.3 -4.0 9.1 -3.2 8.7 -2.5 C 8.4 -1.8 7.9 -1.2 7.2 -0.7 Z M 6.5 -1.4 C 7.0 -1.8 7.4 -2.3 7.7 -2.9 C 8.0 -3.6 8.1 -4.3 8.1 -5.0 C 8.1 -5.8 7.9 -6.5 7.4 -7.0 C 6.9 -7.5 6.4 -7.8 5.7 -7.8 C 5.1 -7.8 4.5 -7.6 4.0 -7.3 C 3.5 -6.9 3.0 -6.4 2.7 -5.8 C 2.4 -5.1 2.2 -4.4 2.2 -3.7 C 2.2 -2.7 2.5 -1.9 3.1 -1.4 C 3.6 -1.0 4.1 -0.8 4.6 -0.8 C 5.1 -0.8 5.5 -0.9 5.8 -1.0 C 5.4 -1.3 5.1 -1.6 4.7 -1.8 L 5.1 -2.5 C 5.4 -2.4 5.6 -2.2 5.8 -2.1 C 6.0 -1.9 6.3 -1.7 6.5 -1.4 Z M 6.5 -1.4"></path></symbol><symbol overflow="visible" id="page4_glyph3-30"><path class="page4_style0" d="M 7.2 -3.0 L 8.4 -2.9 C 8.0 -1.9 7.5 -1.1 6.8 -0.6 C 6.1 -0.1 5.3 0.1 4.5 0.1 C 3.4 0.1 2.6 -0.2 2.0 -0.8 C 1.4 -1.4 1.1 -2.4 1.1 -3.5 C 1.1 -5.1 1.6 -6.4 2.5 -7.4 C 3.3 -8.3 4.3 -8.7 5.6 -8.7 C 6.5 -8.7 7.2 -8.5 7.8 -8.0 C 8.3 -7.5 8.7 -6.9 8.8 -6.0 L 7.7 -5.9 C 7.6 -6.6 7.4 -7.0 7.0 -7.3 C 6.6 -7.6 6.2 -7.8 5.6 -7.8 C 4.6 -7.8 3.7 -7.3 3.1 -6.4 C 2.5 -5.6 2.2 -4.6 2.2 -3.5 C 2.2 -2.6 2.4 -2.0 2.9 -1.5 C 3.3 -1.0 3.9 -0.8 4.6 -0.8 C 5.2 -0.8 5.7 -1.0 6.2 -1.4 C 6.7 -1.8 7.0 -2.3 7.2 -3.0 Z M 7.2 -3.0"></path></symbol><symbol overflow="visible" id="page4_glyph3-31"><path class="page4_style0" d="M 1.9 -7.4 L 2.2 -8.6 L 3.2 -8.6 L 3.0 -7.4 L 1.9 -7.4 Z M -1.5 2.3 L -1.3 1.4 C -1.0 1.5 -0.8 1.5 -0.6 1.5 C -0.4 1.5 -0.2 1.5 -0.1 1.3 C 0.1 1.1 0.2 0.7 0.3 0.1 L 1.6 -6.2 L 2.7 -6.2 L 1.4 0.2 C 1.2 1.1 1.0 1.6 0.8 1.9 C 0.5 2.3 0.1 2.5 -0.5 2.5 C -0.7 2.5 -1.1 2.4 -1.5 2.3 Z M -1.5 2.3"></path></symbol><symbol overflow="visible" id="page4_glyph3-32"><path class="page4_style0" d="M 3.1 0.0 L 1.5 -8.6 L 2.6 -8.6 L 3.6 -3.5 C 3.8 -2.5 3.9 -1.8 4.0 -1.2 C 4.3 -2.0 4.6 -2.5 4.8 -3.0 L 7.9 -8.6 L 9.1 -8.6 L 4.4 0.0 L 3.1 0.0 Z M 3.1 0.0"></path></symbol><symbol overflow="visible" id="page4_glyph3-33"><path class="page4_style0" d="M 0.8 -2.8 L 2.0 -2.9 L 2.0 -2.6 C 2.0 -2.3 2.0 -2.0 2.2 -1.7 C 2.3 -1.4 2.6 -1.2 2.9 -1.0 C 3.3 -0.9 3.7 -0.8 4.2 -0.8 C 4.9 -0.8 5.4 -1.0 5.8 -1.3 C 6.1 -1.6 6.3 -1.9 6.3 -2.3 C 6.3 -2.6 6.2 -2.8 6.0 -3.0 C 5.8 -3.2 5.3 -3.5 4.4 -3.9 C 3.7 -4.2 3.3 -4.4 3.0 -4.6 C 2.7 -4.8 2.4 -5.1 2.2 -5.4 C 2.0 -5.7 1.9 -6.1 1.9 -6.5 C 1.9 -6.9 2.0 -7.3 2.3 -7.6 C 2.5 -8.0 2.9 -8.3 3.3 -8.5 C 3.8 -8.6 4.3 -8.7 4.9 -8.7 C 5.6 -8.7 6.2 -8.6 6.7 -8.4 C 7.2 -8.1 7.5 -7.8 7.7 -7.4 C 8.0 -7.1 8.1 -6.7 8.1 -6.3 C 8.1 -6.3 8.1 -6.2 8.0 -6.2 L 6.9 -6.1 C 6.9 -6.3 6.9 -6.5 6.9 -6.6 C 6.8 -6.9 6.7 -7.1 6.5 -7.2 C 6.3 -7.4 6.1 -7.5 5.8 -7.6 C 5.5 -7.7 5.2 -7.8 4.9 -7.8 C 4.2 -7.8 3.8 -7.6 3.4 -7.4 C 3.1 -7.1 3.0 -6.9 3.0 -6.5 C 3.0 -6.3 3.1 -6.1 3.2 -5.9 C 3.3 -5.8 3.5 -5.6 3.8 -5.5 C 4.0 -5.3 4.5 -5.1 5.2 -4.8 C 5.8 -4.5 6.3 -4.3 6.5 -4.1 C 6.8 -3.9 7.1 -3.7 7.2 -3.4 C 7.4 -3.1 7.5 -2.8 7.5 -2.4 C 7.5 -1.9 7.3 -1.5 7.0 -1.1 C 6.8 -0.7 6.4 -0.4 5.9 -0.2 C 5.4 0.0 4.8 0.1 4.2 0.1 C 3.2 0.1 2.4 -0.1 1.8 -0.5 C 1.1 -0.9 0.8 -1.7 0.8 -2.8 Z M 0.8 -2.8"></path></symbol></g></defs><g id="page4_surface0"><g class="page4_style1"><use xlink:href="#page4_glyph0-1" x="56.88" y="70.08"></use><use xlink:href="#page4_glyph0-2" x="66.198339" y="70.08"></use><use xlink:href="#page4_glyph0-3" x="74.187198" y="70.08"></use><use xlink:href="#page4_glyph0-4" x="82.176058" y="70.08"></use><use xlink:href="#page4_glyph0-5" x="90.164917" y="70.08"></use><use xlink:href="#page4_glyph0-6" x="102.142217" y="70.08"></use></g><g class="page4_style1"><use xlink:href="#page4_glyph0-7" x="110.160124" y="70.08"></use><use xlink:href="#page4_glyph0-8" x="118.148984" y="70.08"></use><use xlink:href="#page4_glyph0-9" x="123.466905" y="70.08"></use></g><g class="page4_style1"><use xlink:href="#page4_glyph0-10" x="127.440165" y="70.08"></use></g><g class="page4_style1"><use xlink:href="#page4_glyph0-11" x="137.520188" y="70.08"></use><use xlink:href="#page4_glyph0-12" x="146.167799" y="70.08"></use><use xlink:href="#page4_glyph0-1" x="155.486138" y="70.08"></use><use xlink:href="#page4_glyph0-11" x="164.804478" y="70.08"></use><use xlink:href="#page4_glyph0-13" x="173.452088" y="70.08"></use></g><g class="page4_style1"><use xlink:href="#page4_glyph0-9" x="182.88" y="70.08"></use></g><g class="page4_style1"><use xlink:href="#page4_glyph0-1" x="357.6" y="731.28"></use><use xlink:href="#page4_glyph0-2" x="366.918339" y="731.28"></use><use xlink:href="#page4_glyph0-3" x="374.907199" y="731.28"></use><use xlink:href="#page4_glyph0-4" x="382.896058" y="731.28"></use><use xlink:href="#page4_glyph0-5" x="390.884917" y="731.28"></use><use xlink:href="#page4_glyph0-6" x="402.862217" y="731.28"></use></g><g class="page4_style1"><use xlink:href="#page4_glyph0-7" x="410.880124" y="731.28"></use><use xlink:href="#page4_glyph0-8" x="418.868984" y="731.28"></use><use xlink:href="#page4_glyph0-9" x="424.186905" y="731.28"></use></g><g class="page4_style1"><use xlink:href="#page4_glyph0-14" x="428.160165" y="731.28"></use><use xlink:href="#page4_glyph0-15" x="436.149024" y="731.28"></use></g><g class="page4_style1"><use xlink:href="#page4_glyph0-15" x="446.160207" y="731.28"></use></g><g class="page4_style1"><use xlink:href="#page4_glyph0-16" x="456.00023" y="731.28"></use><use xlink:href="#page4_glyph0-11" x="464.64784" y="731.28"></use><use xlink:href="#page4_glyph0-13" x="473.295451" y="731.28"></use><use xlink:href="#page4_glyph0-9" x="482.61379" y="731.28"></use></g><g class="page4_style1"><use xlink:href="#page4_glyph0-17" x="486.720301" y="731.28"></use></g><g class="page4_style1"><use xlink:href="#page4_glyph0-18" x="495.120321" y="731.28"></use></g><g class="page4_style1"><use xlink:href="#page4_glyph0-19" x="503.28034" y="731.28"></use><use xlink:href="#page4_glyph0-6" x="511.269199" y="731.28"></use><use xlink:href="#page4_glyph0-9" x="519.258059" y="731.28"></use></g><g class="page4_style1"><use xlink:href="#page4_glyph0-20" x="523.200387" y="731.28"></use></g><g class="page4_style1"><use xlink:href="#page4_glyph0-2" x="533.28041" y="731.28"></use></g><g class="page4_style1"><use xlink:href="#page4_glyph0-21" x="540.960429" y="731.28"></use></g><g class="page4_style1"><use xlink:href="#page4_glyph0-9" x="545.040438" y="731.28"></use></g><g class="page4_style1"><use xlink:href="#page4_glyph1-1" x="549.12" y="731.28"></use></g><g class="page4_style1"><use xlink:href="#page4_glyph2-1" x="555.12" y="731.28"></use></g><g class="page4_style1"><use xlink:href="#page4_glyph2-1" x="56.88" y="98.64"></use></g><g class="page4_style1"><use xlink:href="#page4_glyph3-1" x="56.88" y="112.8"></use><use xlink:href="#page4_glyph3-2" x="63.539379" y="112.8"></use><use xlink:href="#page4_glyph3-3" x="70.198758" y="112.8"></use></g><g class="page4_style1"><use xlink:href="#page4_glyph3-4" x="74.400041" y="112.8"></use><use xlink:href="#page4_glyph3-5" x="81.05942" y="112.8"></use><use xlink:href="#page4_glyph3-6" x="91.048488" y="112.8"></use><use xlink:href="#page4_glyph3-7" x="94.378178" y="112.8"></use></g><g class="page4_style1"><use xlink:href="#page4_glyph3-8" x="96.960094" y="112.8"></use><use xlink:href="#page4_glyph3-9" x="103.619473" y="112.8"></use><use xlink:href="#page4_glyph3-10" x="109.608123" y="112.8"></use><use xlink:href="#page4_glyph3-5" x="116.267501" y="112.8"></use><use xlink:href="#page4_glyph3-6" x="126.25657" y="112.8"></use><use xlink:href="#page4_glyph3-11" x="129.586259" y="112.8"></use></g><g class="page4_style1"><use xlink:href="#page4_glyph3-2" x="136.320186" y="112.8"></use><use xlink:href="#page4_glyph3-12" x="142.979564" y="112.8"></use><use xlink:href="#page4_glyph3-2" x="145.638525" y="112.8"></use><use xlink:href="#page4_glyph3-3" x="152.297904" y="112.8"></use></g><g class="page4_style1"><use xlink:href="#page4_glyph3-6" x="156.480233" y="112.8"></use><use xlink:href="#page4_glyph3-9" x="159.809923" y="112.8"></use><use xlink:href="#page4_glyph3-7" x="165.798573" y="112.8"></use></g><g class="page4_style1"><use xlink:href="#page4_glyph3-13" x="168.24026" y="112.8"></use><use xlink:href="#page4_glyph3-6" x="171.56995" y="112.8"></use><use xlink:href="#page4_glyph3-14" x="174.899639" y="112.8"></use><use xlink:href="#page4_glyph3-5" x="181.559018" y="112.8"></use><use xlink:href="#page4_glyph3-4" x="191.548086" y="112.8"></use><use xlink:href="#page4_glyph3-13" x="198.207465" y="112.8"></use><use xlink:href="#page4_glyph3-15" x="201.537154" y="112.8"></use><use xlink:href="#page4_glyph3-6" x="204.866844" y="112.8"></use><use xlink:href="#page4_glyph3-16" x="208.196533" y="112.8"></use></g><g class="page4_style1"><use xlink:href="#page4_glyph3-2" x="214.320368" y="112.8"></use><use xlink:href="#page4_glyph3-17" x="220.979747" y="112.8"></use><use xlink:href="#page4_glyph3-9" x="227.639126" y="112.8"></use><use xlink:href="#page4_glyph3-4" x="233.627776" y="112.8"></use><use xlink:href="#page4_glyph3-16" x="240.287155" y="112.8"></use><use xlink:href="#page4_glyph3-13" x="246.275805" y="112.8"></use><use xlink:href="#page4_glyph3-4" x="249.605494" y="112.8"></use><use xlink:href="#page4_glyph3-13" x="256.264873" y="112.8"></use></g><g class="page4_style1"><use xlink:href="#page4_glyph3-10" x="259.680474" y="112.8"></use><use xlink:href="#page4_glyph3-3" x="266.339853" y="112.8"></use></g><g class="page4_style1"><use xlink:href="#page4_glyph3-6" x="270.480499" y="112.8"></use><use xlink:href="#page4_glyph3-14" x="273.810189" y="112.8"></use><use xlink:href="#page4_glyph3-11" x="280.469567" y="112.8"></use><use xlink:href="#page4_glyph3-7" x="287.128946" y="112.8"></use></g><g class="page4_style1"><use xlink:href="#page4_glyph3-8" x="289.680544" y="112.8"></use><use xlink:href="#page4_glyph3-7" x="296.339923" y="112.8"></use><use xlink:href="#page4_glyph3-9" x="298.998883" y="112.8"></use><use xlink:href="#page4_glyph3-16" x="304.987533" y="112.8"></use><use xlink:href="#page4_glyph3-7" x="310.976183" y="112.8"></use></g><g class="page4_style1"><use xlink:href="#page4_glyph3-17" x="313.440599" y="112.8"></use><use xlink:href="#page4_glyph3-18" x="320.099978" y="112.8"></use><use xlink:href="#page4_glyph3-6" x="326.759357" y="112.8"></use><use xlink:href="#page4_glyph3-4" x="330.089046" y="112.8"></use><use xlink:href="#page4_glyph3-12" x="336.748425" y="112.8"></use></g><g class="page4_style1"><use xlink:href="#page4_glyph3-7" x="339.840661" y="112.8"></use></g><g class="page4_style1"><use xlink:href="#page4_glyph3-13" x="342.240666" y="112.8"></use><use xlink:href="#page4_glyph3-19" x="345.570356" y="112.8"></use><use xlink:href="#page4_glyph3-6" x="348.900045" y="112.8"></use><use xlink:href="#page4_glyph3-20" x="352.229734" y="112.8"></use><use xlink:href="#page4_glyph3-17" x="355.559424" y="112.8"></use><use xlink:href="#page4_glyph3-6" x="362.218803" y="112.8"></use><use xlink:href="#page4_glyph3-10" x="365.548492" y="112.8"></use><use xlink:href="#page4_glyph3-12" x="372.207871" y="112.8"></use><use xlink:href="#page4_glyph3-13" x="374.866831" y="112.8"></use><use xlink:href="#page4_glyph3-3" x="378.196521" y="112.8"></use></g><g class="page4_style1"><use xlink:href="#page4_glyph3-7" x="382.56076" y="112.8"></use></g><g class="page4_style1"><use xlink:href="#page4_glyph3-16" x="384.960766" y="112.8"></use></g><g class="page4_style1"><use xlink:href="#page4_glyph3-7" x="391.200781" y="112.8"></use></g><g class="page4_style1"><use xlink:href="#page4_glyph3-4" x="393.600786" y="112.8"></use><use xlink:href="#page4_glyph3-9" x="400.260165" y="112.8"></use><use xlink:href="#page4_glyph3-6" x="406.248815" y="112.8"></use><use xlink:href="#page4_glyph3-7" x="409.578504" y="112.8"></use></g><g class="page4_style1"><use xlink:href="#page4_glyph3-17" x="412.080829" y="112.8"></use><use xlink:href="#page4_glyph3-13" x="418.740208" y="112.8"></use><use xlink:href="#page4_glyph3-4" x="422.069898" y="112.8"></use><use xlink:href="#page4_glyph3-3" x="428.729276" y="112.8"></use></g><g class="page4_style1"><use xlink:href="#page4_glyph3-11" x="432.960878" y="112.8"></use><use xlink:href="#page4_glyph3-10" x="439.620257" y="112.8"></use><use xlink:href="#page4_glyph3-5" x="446.279636" y="112.8"></use><use xlink:href="#page4_glyph3-6" x="456.268704" y="112.8"></use><use xlink:href="#page4_glyph3-2" x="459.598393" y="112.8"></use><use xlink:href="#page4_glyph3-3" x="466.257772" y="112.8"></use></g><g class="page4_style1"><use xlink:href="#page4_glyph3-16" x="470.640966" y="112.8"></use><use xlink:href="#page4_glyph3-7" x="476.629616" y="112.8"></use></g><g class="page4_style1"><use xlink:href="#page4_glyph3-6" x="479.040985" y="112.8"></use><use xlink:href="#page4_glyph3-14" x="482.370675" y="112.8"></use><use xlink:href="#page4_glyph3-6" x="489.030053" y="112.8"></use><use xlink:href="#page4_glyph3-8" x="492.359743" y="112.8"></use><use xlink:href="#page4_glyph3-2" x="499.019122" y="112.8"></use><use xlink:href="#page4_glyph3-9" x="505.6785" y="112.8"></use><use xlink:href="#page4_glyph3-10" x="511.66715" y="112.8"></use><use xlink:href="#page4_glyph3-4" x="518.326529" y="112.8"></use><use xlink:href="#page4_glyph3-3" x="524.985908" y="112.8"></use></g><g class="page4_style1"><use xlink:href="#page4_glyph3-4" x="529.201102" y="112.8"></use><use xlink:href="#page4_glyph3-19" x="535.860481" y="112.8"></use><use xlink:href="#page4_glyph3-6" x="539.19017" y="112.8"></use></g><g class="page4_style1"><use xlink:href="#page4_glyph3-20" x="56.88" y="126.48"></use><use xlink:href="#page4_glyph3-17" x="60.209689" y="126.48"></use><use xlink:href="#page4_glyph3-13" x="66.869068" y="126.48"></use><use xlink:href="#page4_glyph3-4" x="70.198758" y="126.48"></use><use xlink:href="#page4_glyph3-18" x="76.858136" y="126.48"></use><use xlink:href="#page4_glyph3-4" x="83.517515" y="126.48"></use><use xlink:href="#page4_glyph3-3" x="90.176894" y="126.48"></use></g><g class="page4_style1"><use xlink:href="#page4_glyph3-6" x="94.560088" y="126.48"></use></g><g class="page4_style1"><use xlink:href="#page4_glyph3-4" x="97.680095" y="126.48"></use><use xlink:href="#page4_glyph3-10" x="104.339474" y="126.48"></use><use xlink:href="#page4_glyph3-6" x="110.998853" y="126.48"></use><use xlink:href="#page4_glyph3-4" x="114.328542" y="126.48"></use><use xlink:href="#page4_glyph3-17" x="120.987921" y="126.48"></use><use xlink:href="#page4_glyph3-7" x="127.6473" y="126.48"></use></g><g class="page4_style1"><use xlink:href="#page4_glyph3-5" x="130.320171" y="126.48"></use><use xlink:href="#page4_glyph3-6" x="140.30924" y="126.48"></use><use xlink:href="#page4_glyph3-10" x="143.638929" y="126.48"></use><use xlink:href="#page4_glyph3-12" x="150.298308" y="126.48"></use><use xlink:href="#page4_glyph3-13" x="152.957268" y="126.48"></use><use xlink:href="#page4_glyph3-3" x="156.286958" y="126.48"></use></g><g class="page4_style1"><use xlink:href="#page4_glyph3-7" x="160.560242" y="126.48"></use></g><g class="page4_style1"><use xlink:href="#page4_glyph3-16" x="162.960247" y="126.48"></use><use xlink:href="#page4_glyph3-4" x="168.948897" y="126.48"></use><use xlink:href="#page4_glyph3-9" x="175.608276" y="126.48"></use><use xlink:href="#page4_glyph3-15" x="181.596926" y="126.48"></use><use xlink:href="#page4_glyph3-6" x="184.926615" y="126.48"></use><use xlink:href="#page4_glyph3-8" x="188.256305" y="126.48"></use><use xlink:href="#page4_glyph3-21" x="194.915683" y="126.48"></use><use xlink:href="#page4_glyph3-14" x="201.575062" y="126.48"></use></g><g class="page4_style1"><use xlink:href="#page4_glyph3-3" x="208.320353" y="126.48"></use></g><g class="page4_style1"><use xlink:href="#page4_glyph3-4" x="212.400363" y="126.48"></use><use xlink:href="#page4_glyph3-13" x="219.059741" y="126.48"></use><use xlink:href="#page4_glyph3-3" x="222.389431" y="126.48"></use></g><g class="page4_style1"><use xlink:href="#page4_glyph3-14" x="226.560396" y="126.48"></use></g><g class="page4_style1"><use xlink:href="#page4_glyph3-6" x="233.040411" y="126.48"></use><use xlink:href="#page4_glyph3-12" x="236.370101" y="126.48"></use><use xlink:href="#page4_glyph3-7" x="239.029061" y="126.48"></use></g><g class="page4_style1"><use xlink:href="#page4_glyph3-18" x="241.440431" y="126.48"></use><use xlink:href="#page4_glyph3-10" x="248.09981" y="126.48"></use><use xlink:href="#page4_glyph3-12" x="254.759188" y="126.48"></use><use xlink:href="#page4_glyph3-14" x="257.418149" y="126.48"></use><use xlink:href="#page4_glyph3-6" x="264.077528" y="126.48"></use><use xlink:href="#page4_glyph3-14" x="267.407217" y="126.48"></use><use xlink:href="#page4_glyph3-15" x="274.066596" y="126.48"></use><use xlink:href="#page4_glyph3-6" x="277.396285" y="126.48"></use><use xlink:href="#page4_glyph3-14" x="280.725975" y="126.48"></use><use xlink:href="#page4_glyph3-16" x="287.385354" y="126.48"></use><use xlink:href="#page4_glyph3-16" x="293.374004" y="126.48"></use></g><g class="page4_style1"><use xlink:href="#page4_glyph3-10" x="299.520566" y="126.48"></use><use xlink:href="#page4_glyph3-5" x="306.179945" y="126.48"></use><use xlink:href="#page4_glyph3-9" x="316.169013" y="126.48"></use><use xlink:href="#page4_glyph3-14" x="322.157663" y="126.48"></use><use xlink:href="#page4_glyph3-17" x="328.817042" y="126.48"></use><use xlink:href="#page4_glyph3-6" x="335.47642" y="126.48"></use><use xlink:href="#page4_glyph3-9" x="338.80611" y="126.48"></use><use xlink:href="#page4_glyph3-4" x="344.79476" y="126.48"></use></g><g class="page4_style1"><use xlink:href="#page4_glyph3-5" x="351.600688" y="126.48"></use><use xlink:href="#page4_glyph3-19" x="361.589756" y="126.48"></use><use xlink:href="#page4_glyph3-6" x="364.919446" y="126.48"></use><use xlink:href="#page4_glyph3-22" x="368.249135" y="126.48"></use><use xlink:href="#page4_glyph3-2" x="376.896746" y="126.48"></use><use xlink:href="#page4_glyph3-17" x="383.556125" y="126.48"></use><use xlink:href="#page4_glyph3-4" x="390.215503" y="126.48"></use><use xlink:href="#page4_glyph3-16" x="396.874882" y="126.48"></use><use xlink:href="#page4_glyph3-6" x="402.863532" y="126.48"></use><use xlink:href="#page4_glyph3-23" x="406.193222" y="126.48"></use></g><g class="page4_style1"><use xlink:href="#page4_glyph3-4" x="412.32083" y="126.48"></use><use xlink:href="#page4_glyph3-9" x="418.980209" y="126.48"></use><use xlink:href="#page4_glyph3-13" x="424.968859" y="126.48"></use><use xlink:href="#page4_glyph3-7" x="428.298548" y="126.48"></use></g><g class="page4_style1"><use xlink:href="#page4_glyph3-24" x="430.800873" y="126.48"></use><use xlink:href="#page4_glyph3-10" x="437.460252" y="126.48"></use><use xlink:href="#page4_glyph3-12" x="444.119631" y="126.48"></use><use xlink:href="#page4_glyph3-10" x="446.778591" y="126.48"></use><use xlink:href="#page4_glyph3-5" x="453.43797" y="126.48"></use><use xlink:href="#page4_glyph3-6" x="463.427038" y="126.48"></use><use xlink:href="#page4_glyph3-5" x="466.756728" y="126.48"></use><use xlink:href="#page4_glyph3-4" x="476.745796" y="126.48"></use><use xlink:href="#page4_glyph3-13" x="483.405175" y="126.48"></use><use xlink:href="#page4_glyph3-10" x="486.734864" y="126.48"></use><use xlink:href="#page4_glyph3-9" x="493.394243" y="126.48"></use></g><g class="page4_style1"><use xlink:href="#page4_glyph3-6" x="499.681034" y="126.48"></use><use xlink:href="#page4_glyph3-7" x="503.010724" y="126.48"></use></g><g class="page4_style1"><use xlink:href="#page4_glyph3-8" x="505.441047" y="126.48"></use><use xlink:href="#page4_glyph3-9" x="512.100426" y="126.48"></use><use xlink:href="#page4_glyph3-10" x="518.089076" y="126.48"></use><use xlink:href="#page4_glyph3-5" x="524.748455" y="126.48"></use><use xlink:href="#page4_glyph3-15" x="534.737523" y="126.48"></use><use xlink:href="#page4_glyph3-6" x="538.067212" y="126.48"></use></g><g class="page4_style1"><use xlink:href="#page4_glyph3-23" x="56.88" y="140.4"></use><use xlink:href="#page4_glyph3-7" x="62.86865" y="140.4"></use></g><g class="page4_style1"><use xlink:href="#page4_glyph3-13" x="65.280019" y="140.4"></use><use xlink:href="#page4_glyph3-14" x="68.609709" y="140.4"></use><use xlink:href="#page4_glyph3-4" x="75.269088" y="140.4"></use><use xlink:href="#page4_glyph3-6" x="81.928466" y="140.4"></use><use xlink:href="#page4_glyph3-11" x="85.258156" y="140.4"></use><use xlink:href="#page4_glyph3-7" x="91.917535" y="140.4"></use></g><g class="page4_style1"><use xlink:href="#page4_glyph3-18" x="94.560088" y="140.4"></use><use xlink:href="#page4_glyph3-17" x="101.219467" y="140.4"></use></g><g class="page4_style1"><use xlink:href="#page4_glyph3-7" x="108.24012" y="140.4"></use></g><g class="page4_style1"><use xlink:href="#page4_glyph3-9" x="110.640126" y="140.4"></use><use xlink:href="#page4_glyph3-9" x="116.628776" y="140.4"></use></g><g class="page4_style1"><use xlink:href="#page4_glyph3-7" x="122.880154" y="140.4"></use></g><g class="page4_style1"><use xlink:href="#page4_glyph3-5" x="125.280159" y="140.4"></use><use xlink:href="#page4_glyph3-6" x="135.269227" y="140.4"></use><use xlink:href="#page4_glyph3-17" x="138.598917" y="140.4"></use><use xlink:href="#page4_glyph3-10" x="145.258296" y="140.4"></use><use xlink:href="#page4_glyph3-12" x="151.917674" y="140.4"></use><use xlink:href="#page4_glyph3-12" x="154.576635" y="140.4"></use><use xlink:href="#page4_glyph3-14" x="157.235596" y="140.4"></use><use xlink:href="#page4_glyph3-6" x="163.894974" y="140.4"></use><use xlink:href="#page4_glyph3-4" x="167.224664" y="140.4"></use><use xlink:href="#page4_glyph3-12" x="173.884043" y="140.4"></use><use xlink:href="#page4_glyph3-4" x="176.543003" y="140.4"></use><use xlink:href="#page4_glyph3-7" x="183.202382" y="140.4"></use></g><g class="page4_style1"><use xlink:href="#page4_glyph3-25" x="186.000301" y="140.4"></use><use xlink:href="#page4_glyph3-4" x="189.32999" y="140.4"></use><use xlink:href="#page4_glyph3-17" x="195.989369" y="140.4"></use><use xlink:href="#page4_glyph3-11" x="202.648748" y="140.4"></use><use xlink:href="#page4_glyph3-6" x="209.308127" y="140.4"></use><use xlink:href="#page4_glyph3-7" x="212.637816" y="140.4"></use></g><g class="page4_style1"><use xlink:href="#page4_glyph3-11" x="215.280369" y="140.4"></use><use xlink:href="#page4_glyph3-19" x="221.939748" y="140.4"></use><use xlink:href="#page4_glyph3-6" x="225.269437" y="140.4"></use><use xlink:href="#page4_glyph3-26" x="228.599127" y="140.4"></use><use xlink:href="#page4_glyph3-14" x="238.624127" y="140.4"></use><use xlink:href="#page4_glyph3-4" x="245.283506" y="140.4"></use><use xlink:href="#page4_glyph3-16" x="251.942884" y="140.4"></use><use xlink:href="#page4_glyph3-4" x="257.931534" y="140.4"></use><use xlink:href="#page4_glyph3-17" x="264.590913" y="140.4"></use><use xlink:href="#page4_glyph3-14" x="271.250292" y="140.4"></use><use xlink:href="#page4_glyph3-9" x="277.909671" y="140.4"></use><use xlink:href="#page4_glyph3-6" x="283.898321" y="140.4"></use><use xlink:href="#page4_glyph3-23" x="287.22801" y="140.4"></use><use xlink:href="#page4_glyph3-4" x="293.21666" y="140.4"></use></g><g class="page4_style1"><use xlink:href="#page4_glyph3-12" x="300.240568" y="140.4"></use><use xlink:href="#page4_glyph3-6" x="302.899529" y="140.4"></use><use xlink:href="#page4_glyph3-10" x="306.229218" y="140.4"></use><use xlink:href="#page4_glyph3-3" x="312.888597" y="140.4"></use></g><g class="page4_style1"><use xlink:href="#page4_glyph3-17" x="317.040607" y="140.4"></use><use xlink:href="#page4_glyph3-14" x="323.699986" y="140.4"></use><use xlink:href="#page4_glyph3-6" x="330.359365" y="140.4"></use><use xlink:href="#page4_glyph3-23" x="333.689054" y="140.4"></use><use xlink:href="#page4_glyph3-2" x="339.677704" y="140.4"></use><use xlink:href="#page4_glyph3-12" x="346.337083" y="140.4"></use><use xlink:href="#page4_glyph3-10" x="348.996043" y="140.4"></use><use xlink:href="#page4_glyph3-13" x="355.655422" y="140.4"></use></g><g class="page4_style1"><use xlink:href="#page4_glyph3-8" x="359.040705" y="140.4"></use><use xlink:href="#page4_glyph3-14" x="365.700084" y="140.4"></use><use xlink:href="#page4_glyph3-13" x="372.359463" y="140.4"></use><use xlink:href="#page4_glyph3-15" x="375.689152" y="140.4"></use><use xlink:href="#page4_glyph3-6" x="379.018841" y="140.4"></use><use xlink:href="#page4_glyph3-13" x="382.348531" y="140.4"></use><use xlink:href="#page4_glyph3-4" x="385.67822" y="140.4"></use></g><g class="page4_style1"><use xlink:href="#page4_glyph3-5" x="392.400783" y="140.4"></use><use xlink:href="#page4_glyph3-8" x="402.389851" y="140.4"></use><use xlink:href="#page4_glyph3-10" x="409.04923" y="140.4"></use><use xlink:href="#page4_glyph3-9" x="415.708609" y="140.4"></use><use xlink:href="#page4_glyph3-6" x="421.697259" y="140.4"></use></g><g class="page4_style1"><use xlink:href="#page4_glyph3-2" x="425.040859" y="140.4"></use><use xlink:href="#page4_glyph3-11" x="431.700238" y="140.4"></use></g><g class="page4_style1"><use xlink:href="#page4_glyph3-7" x="438.48" y="140.4"></use></g><g class="page4_style1"><use xlink:href="#page4_glyph3-2" x="440.880005" y="140.4"></use><use xlink:href="#page4_glyph3-6" x="447.539384" y="140.4"></use><use xlink:href="#page4_glyph3-9" x="450.869074" y="140.4"></use><use xlink:href="#page4_glyph3-10" x="456.857724" y="140.4"></use><use xlink:href="#page4_glyph3-9" x="463.517102" y="140.4"></use><use xlink:href="#page4_glyph3-16" x="469.505752" y="140.4"></use><use xlink:href="#page4_glyph3-7" x="475.494402" y="140.4"></use></g><g class="page4_style1"><use xlink:href="#page4_glyph3-8" x="478.080092" y="140.4"></use></g><g class="page4_style1"><use xlink:href="#page4_glyph3-7" x="485.040108" y="140.4"></use></g><g class="page4_style1"><use xlink:href="#page4_glyph3-13" x="487.440114" y="140.4"></use><use xlink:href="#page4_glyph3-15" x="490.769803" y="140.4"></use><use xlink:href="#page4_glyph3-6" x="494.099493" y="140.4"></use></g><g class="page4_style1"><use xlink:href="#page4_glyph3-16" x="56.88" y="154.08"></use><use xlink:href="#page4_glyph3-2" x="62.86865" y="154.08"></use><use xlink:href="#page4_glyph3-17" x="69.528029" y="154.08"></use><use xlink:href="#page4_glyph3-9" x="76.187408" y="154.08"></use><use xlink:href="#page4_glyph3-4" x="82.176058" y="154.08"></use><use xlink:href="#page4_glyph3-16" x="88.835436" y="154.08"></use><use xlink:href="#page4_glyph3-13" x="94.824086" y="154.08"></use><use xlink:href="#page4_glyph3-4" x="98.153776" y="154.08"></use><use xlink:href="#page4_glyph3-13" x="104.813155" y="154.08"></use><use xlink:href="#page4_glyph3-10" x="108.142844" y="154.08"></use></g><g class="page4_style1"><use xlink:href="#page4_glyph3-3" x="114.960135" y="154.08"></use></g><g class="page4_style1"><use xlink:href="#page4_glyph3-6" x="119.040145" y="154.08"></use><use xlink:href="#page4_glyph3-5" x="122.369834" y="154.08"></use><use xlink:href="#page4_glyph3-14" x="132.358902" y="154.08"></use><use xlink:href="#page4_glyph3-9" x="139.018281" y="154.08"></use><use xlink:href="#page4_glyph3-9" x="145.006931" y="154.08"></use><use xlink:href="#page4_glyph3-14" x="150.995581" y="154.08"></use></g><g class="page4_style1"><use xlink:href="#page4_glyph3-19" x="157.680235" y="154.08"></use><use xlink:href="#page4_glyph3-6" x="161.009924" y="154.08"></use><use xlink:href="#page4_glyph3-27" x="164.339614" y="154.08"></use><use xlink:href="#page4_glyph3-3" x="172.328473" y="154.08"></use></g><g class="page4_style1"><use xlink:href="#page4_glyph3-2" x="176.400279" y="154.08"></use><use xlink:href="#page4_glyph3-7" x="183.059658" y="154.08"></use></g><g class="page4_style1"><use xlink:href="#page4_glyph3-17" x="185.520301" y="154.08"></use><use xlink:href="#page4_glyph3-6" x="192.179679" y="154.08"></use><use xlink:href="#page4_glyph3-25" x="195.509369" y="154.08"></use><use xlink:href="#page4_glyph3-4" x="198.839058" y="154.08"></use><use xlink:href="#page4_glyph3-3" x="205.498437" y="154.08"></use></g><g class="page4_style1"><use xlink:href="#page4_glyph3-5" x="209.760357" y="154.08"></use><use xlink:href="#page4_glyph3-4" x="219.749425" y="154.08"></use><use xlink:href="#page4_glyph3-17" x="226.408804" y="154.08"></use></g><g class="page4_style1"><use xlink:href="#page4_glyph3-13" x="233.040411" y="154.08"></use><use xlink:href="#page4_glyph3-10" x="236.3701" y="154.08"></use><use xlink:href="#page4_glyph3-5" x="243.029479" y="154.08"></use><use xlink:href="#page4_glyph3-6" x="253.018547" y="154.08"></use><use xlink:href="#page4_glyph3-28" x="256.348237" y="154.08"></use></g><g class="page4_style1"><use xlink:href="#page4_glyph3-10" x="263.040481" y="154.08"></use><use xlink:href="#page4_glyph3-14" x="269.69986" y="154.08"></use><use xlink:href="#page4_glyph3-5" x="276.359239" y="154.08"></use><use xlink:href="#page4_glyph3-6" x="286.348307" y="154.08"></use><use xlink:href="#page4_glyph3-17" x="289.677996" y="154.08"></use></g><g class="page4_style1"><use xlink:href="#page4_glyph3-2" x="296.400559" y="154.08"></use><use xlink:href="#page4_glyph3-17" x="303.059938" y="154.08"></use><use xlink:href="#page4_glyph3-6" x="309.719317" y="154.08"></use><use xlink:href="#page4_glyph3-23" x="313.049006" y="154.08"></use><use xlink:href="#page4_glyph3-4" x="319.037656" y="154.08"></use><use xlink:href="#page4_glyph3-9" x="325.697035" y="154.08"></use><use xlink:href="#page4_glyph3-13" x="331.685685" y="154.08"></use><use xlink:href="#page4_glyph3-7" x="335.015374" y="154.08"></use></g><g class="page4_style1"><use xlink:href="#page4_glyph3-24" x="337.680655" y="154.08"></use><use xlink:href="#page4_glyph3-10" x="344.340034" y="154.08"></use><use xlink:href="#page4_glyph3-12" x="350.999413" y="154.08"></use><use xlink:href="#page4_glyph3-10" x="353.658374" y="154.08"></use><use xlink:href="#page4_glyph3-5" x="360.317752" y="154.08"></use><use xlink:href="#page4_glyph3-6" x="370.306821" y="154.08"></use><use xlink:href="#page4_glyph3-4" x="373.63651" y="154.08"></use><use xlink:href="#page4_glyph3-18" x="380.295889" y="154.08"></use><use xlink:href="#page4_glyph3-4" x="386.955268" y="154.08"></use><use xlink:href="#page4_glyph3-9" x="393.614646" y="154.08"></use><use xlink:href="#page4_glyph3-13" x="399.603296" y="154.08"></use></g><g class="page4_style1"><use xlink:href="#page4_glyph3-14" x="403.200809" y="154.08"></use><use xlink:href="#page4_glyph3-9" x="409.860188" y="154.08"></use><use xlink:href="#page4_glyph3-19" x="415.848838" y="154.08"></use><use xlink:href="#page4_glyph3-6" x="419.178527" y="154.08"></use><use xlink:href="#page4_glyph3-29" x="422.508217" y="154.08"></use><use xlink:href="#page4_glyph3-10" x="431.826556" y="154.08"></use><use xlink:href="#page4_glyph3-7" x="438.485935" y="154.08"></use></g><g class="page4_style1"><use xlink:href="#page4_glyph3-9" x="441.120898" y="154.08"></use><use xlink:href="#page4_glyph3-28" x="447.109548" y="154.08"></use></g><g class="page4_style1"><use xlink:href="#page4_glyph3-10" x="453.600927" y="154.08"></use><use xlink:href="#page4_glyph3-4" x="460.260306" y="154.08"></use><use xlink:href="#page4_glyph3-6" x="466.919684" y="154.08"></use><use xlink:href="#page4_glyph3-17" x="470.249374" y="154.08"></use><use xlink:href="#page4_glyph3-10" x="476.908753" y="154.08"></use><use xlink:href="#page4_glyph3-12" x="483.568131" y="154.08"></use><use xlink:href="#page4_glyph3-12" x="486.227092" y="154.08"></use><use xlink:href="#page4_glyph3-14" x="488.886053" y="154.08"></use><use xlink:href="#page4_glyph3-6" x="495.545431" y="154.08"></use><use xlink:href="#page4_glyph3-13" x="498.875121" y="154.08"></use><use xlink:href="#page4_glyph3-2" x="502.20481" y="154.08"></use><use xlink:href="#page4_glyph3-3" x="508.864189" y="154.08"></use></g><g class="page4_style1"><use xlink:href="#page4_glyph3-13" x="513.361066" y="154.08"></use><use xlink:href="#page4_glyph3-2" x="516.690756" y="154.08"></use><use xlink:href="#page4_glyph3-3" x="523.350134" y="154.08"></use></g><g class="page4_style1"><use xlink:href="#page4_glyph3-15" x="526.801098" y="154.08"></use><use xlink:href="#page4_glyph3-6" x="530.130787" y="154.08"></use></g><g class="page4_style1"><use xlink:href="#page4_glyph3-13" x="56.88" y="168"></use><use xlink:href="#page4_glyph3-4" x="60.209689" y="168"></use><use xlink:href="#page4_glyph3-5" x="66.869068" y="168"></use><use xlink:href="#page4_glyph3-8" x="76.858136" y="168"></use><use xlink:href="#page4_glyph3-2" x="83.517515" y="168"></use><use xlink:href="#page4_glyph3-3" x="90.176894" y="168"></use></g><g class="page4_style1"><use xlink:href="#page4_glyph3-6" x="94.320088" y="168"></use><use xlink:href="#page4_glyph3-23" x="97.649777" y="168"></use><use xlink:href="#page4_glyph3-4" x="103.638427" y="168"></use><use xlink:href="#page4_glyph3-12" x="110.297806" y="168"></use><use xlink:href="#page4_glyph3-6" x="112.956766" y="168"></use><use xlink:href="#page4_glyph3-8" x="116.286456" y="168"></use><use xlink:href="#page4_glyph3-10" x="122.945835" y="168"></use><use xlink:href="#page4_glyph3-12" x="129.605213" y="168"></use><use xlink:href="#page4_glyph3-23" x="132.264174" y="168"></use><use xlink:href="#page4_glyph3-7" x="138.252824" y="168"></use></g><g class="page4_style1"><use xlink:href="#page4_glyph3-17" x="140.880196" y="168"></use><use xlink:href="#page4_glyph3-14" x="147.539575" y="168"></use><use xlink:href="#page4_glyph3-3" x="154.198954" y="168"></use></g><g class="page4_style1"><use xlink:href="#page4_glyph3-6" x="158.400237" y="168"></use><use xlink:href="#page4_glyph3-9" x="161.729927" y="168"></use><use xlink:href="#page4_glyph3-4" x="167.718577" y="168"></use><use xlink:href="#page4_glyph3-11" x="174.377956" y="168"></use><use xlink:href="#page4_glyph3-15" x="181.037334" y="168"></use><use xlink:href="#page4_glyph3-6" x="184.367024" y="168"></use></g><g class="page4_style1"><use xlink:href="#page4_glyph3-11" x="187.680306" y="168"></use><use xlink:href="#page4_glyph3-7" x="194.339685" y="168"></use></g><g class="page4_style1"><use xlink:href="#page4_glyph3-16" x="196.800327" y="168"></use><use xlink:href="#page4_glyph3-13" x="202.788977" y="168"></use><use xlink:href="#page4_glyph3-10" x="206.118667" y="168"></use><use xlink:href="#page4_glyph3-5" x="212.778046" y="168"></use><use xlink:href="#page4_glyph3-6" x="222.767114" y="168"></use><use xlink:href="#page4_glyph3-14" x="226.096803" y="168"></use><use xlink:href="#page4_glyph3-13" x="232.756182" y="168"></use><use xlink:href="#page4_glyph3-6" x="236.085871" y="168"></use><use xlink:href="#page4_glyph3-4" x="239.415561" y="168"></use><use xlink:href="#page4_glyph3-3" x="246.07494" y="168"></use></g><g class="page4_style1"><use xlink:href="#page4_glyph3-2" x="250.560453" y="168"></use><use xlink:href="#page4_glyph3-9" x="257.219832" y="168"></use></g><g class="page4_style1"><use xlink:href="#page4_glyph3-19" x="263.040482" y="168"></use><use xlink:href="#page4_glyph3-6" x="266.370171" y="168"></use><use xlink:href="#page4_glyph3-30" x="269.699861" y="168"></use><use xlink:href="#page4_glyph3-12" x="278.347471" y="168"></use><use xlink:href="#page4_glyph3-14" x="281.006432" y="168"></use><use xlink:href="#page4_glyph3-9" x="287.665811" y="168"></use><use xlink:href="#page4_glyph3-9" x="293.654461" y="168"></use></g><g class="page4_style1"><use xlink:href="#page4_glyph3-6" x="299.520567" y="168"></use><use xlink:href="#page4_glyph3-14" x="302.850257" y="168"></use><use xlink:href="#page4_glyph3-8" x="309.509636" y="168"></use><use xlink:href="#page4_glyph3-13" x="316.169014" y="168"></use><use xlink:href="#page4_glyph3-4" x="319.498704" y="168"></use><use xlink:href="#page4_glyph3-17" x="326.158083" y="168"></use><use xlink:href="#page4_glyph3-13" x="332.817461" y="168"></use><use xlink:href="#page4_glyph3-6" x="336.147151" y="168"></use><use xlink:href="#page4_glyph3-13" x="339.47684" y="168"></use></g><g class="page4_style1"><use xlink:href="#page4_glyph3-14" x="342.960669" y="168"></use><use xlink:href="#page4_glyph3-16" x="349.620048" y="168"></use><use xlink:href="#page4_glyph3-7" x="355.608698" y="168"></use></g><g class="page4_style1"><use xlink:href="#page4_glyph3-13" x="358.080705" y="168"></use></g><g class="page4_style1"><use xlink:href="#page4_glyph3-7" x="361.680714" y="168"></use></g><g class="page4_style1"><use xlink:href="#page4_glyph3-6" x="364.080719" y="168"></use><use xlink:href="#page4_glyph3-9" x="367.410408" y="168"></use><use xlink:href="#page4_glyph3-2" x="373.399058" y="168"></use><use xlink:href="#page4_glyph3-16" x="380.058437" y="168"></use><use xlink:href="#page4_glyph3-7" x="386.047087" y="168"></use></g><g class="page4_style1"><use xlink:href="#page4_glyph3-2" x="388.560776" y="168"></use><use xlink:href="#page4_glyph3-9" x="395.220155" y="168"></use></g><g class="page4_style1"><use xlink:href="#page4_glyph3-28" x="401.520807" y="168"></use></g><g class="page4_style1"><use xlink:href="#page4_glyph3-10" x="408.000822" y="168"></use><use xlink:href="#page4_glyph3-6" x="414.6602" y="168"></use><use xlink:href="#page4_glyph3-14" x="417.98989" y="168"></use><use xlink:href="#page4_glyph3-11" x="424.649269" y="168"></use><use xlink:href="#page4_glyph3-6" x="431.308647" y="168"></use><use xlink:href="#page4_glyph3-12" x="434.638337" y="168"></use><use xlink:href="#page4_glyph3-7" x="437.297297" y="168"></use></g><g class="page4_style1"><use xlink:href="#page4_glyph3-13" x="439.920896" y="168"></use><use xlink:href="#page4_glyph3-2" x="443.250586" y="168"></use><use xlink:href="#page4_glyph3-3" x="449.909964" y="168"></use></g><g class="page4_style1"><use xlink:href="#page4_glyph3-14" x="454.08093" y="168"></use><use xlink:href="#page4_glyph3-6" x="460.740309" y="168"></use><use xlink:href="#page4_glyph3-13" x="464.069998" y="168"></use><use xlink:href="#page4_glyph3-2" x="467.399687" y="168"></use><use xlink:href="#page4_glyph3-3" x="474.059066" y="168"></use></g><g class="page4_style1"><use xlink:href="#page4_glyph3-28" x="478.320986" y="168"></use></g><g class="page4_style1"><use xlink:href="#page4_glyph3-10" x="484.801001" y="168"></use><use xlink:href="#page4_glyph3-4" x="491.46038" y="168"></use><use xlink:href="#page4_glyph3-17" x="498.119759" y="168"></use><use xlink:href="#page4_glyph3-13" x="504.779137" y="168"></use><use xlink:href="#page4_glyph3-6" x="508.108827" y="168"></use><use xlink:href="#page4_glyph3-8" x="511.438516" y="168"></use><use xlink:href="#page4_glyph3-4" x="518.097895" y="168"></use><use xlink:href="#page4_glyph3-3" x="524.757274" y="168"></use></g><g class="page4_style1"><use xlink:href="#page4_glyph3-6" x="529.201105" y="168"></use></g><g class="page4_style1"><use xlink:href="#page4_glyph3-16" x="56.88" y="181.68"></use><use xlink:href="#page4_glyph3-2" x="62.86865" y="181.68"></use><use xlink:href="#page4_glyph3-17" x="69.528029" y="181.68"></use><use xlink:href="#page4_glyph3-10" x="76.187408" y="181.68"></use><use xlink:href="#page4_glyph3-24" x="82.846786" y="181.68"></use><use xlink:href="#page4_glyph3-7" x="89.506165" y="181.68"></use></g><g class="page4_style1"><use xlink:href="#page4_glyph3-14" x="92.160082" y="181.68"></use><use xlink:href="#page4_glyph3-6" x="98.819461" y="181.68"></use><use xlink:href="#page4_glyph3-17" x="102.149151" y="181.68"></use><use xlink:href="#page4_glyph3-2" x="108.808529" y="181.68"></use><use xlink:href="#page4_glyph3-9" x="115.467908" y="181.68"></use><use xlink:href="#page4_glyph3-13" x="121.456558" y="181.68"></use><use xlink:href="#page4_glyph3-3" x="124.786248" y="181.68"></use></g><g class="page4_style1"><use xlink:href="#page4_glyph3-14" x="129.120169" y="181.68"></use><use xlink:href="#page4_glyph3-15" x="135.779548" y="181.68"></use><use xlink:href="#page4_glyph3-6" x="139.109237" y="181.68"></use><use xlink:href="#page4_glyph3-8" x="142.438926" y="181.68"></use></g><g class="page4_style1"><use xlink:href="#page4_glyph3-4" x="149.040215" y="181.68"></use><use xlink:href="#page4_glyph3-3" x="155.699594" y="181.68"></use></g><g class="page4_style1"><use xlink:href="#page4_glyph3-6" x="159.84024" y="181.68"></use><use xlink:href="#page4_glyph3-7" x="163.16993" y="181.68"></use></g><g class="page4_style1"><use xlink:href="#page4_glyph3-17" x="165.600253" y="181.68"></use><use xlink:href="#page4_glyph3-16" x="172.259632" y="181.68"></use><use xlink:href="#page4_glyph3-4" x="178.248282" y="181.68"></use><use xlink:href="#page4_glyph3-8" x="184.907661" y="181.68"></use><use xlink:href="#page4_glyph3-13" x="191.567039" y="181.68"></use><use xlink:href="#page4_glyph3-2" x="194.896729" y="181.68"></use><use xlink:href="#page4_glyph3-9" x="201.556108" y="181.68"></use><use xlink:href="#page4_glyph3-6" x="207.544758" y="181.68"></use><use xlink:href="#page4_glyph3-21" x="210.874447" y="181.68"></use><use xlink:href="#page4_glyph3-7" x="217.533826" y="181.68"></use></g><g class="page4_style1"><use xlink:href="#page4_glyph3-5" x="220.320381" y="181.68"></use><use xlink:href="#page4_glyph3-4" x="230.309449" y="181.68"></use><use xlink:href="#page4_glyph3-17" x="236.968828" y="181.68"></use><use xlink:href="#page4_glyph3-14" x="243.628206" y="181.68"></use><use xlink:href="#page4_glyph3-4" x="250.287585" y="181.68"></use><use xlink:href="#page4_glyph3-2" x="256.946964" y="181.68"></use><use xlink:href="#page4_glyph3-9" x="263.606343" y="181.68"></use></g><g class="page4_style1"><use xlink:href="#page4_glyph3-19" x="269.760496" y="181.68"></use><use xlink:href="#page4_glyph3-6" x="273.090186" y="181.68"></use><use xlink:href="#page4_glyph3-27" x="276.419875" y="181.68"></use><use xlink:href="#page4_glyph3-3" x="284.408734" y="181.68"></use></g><g class="page4_style1"><use xlink:href="#page4_glyph3-2" x="288.48054" y="181.68"></use><use xlink:href="#page4_glyph3-7" x="295.139919" y="181.68"></use></g><g class="page4_style1"><use xlink:href="#page4_glyph3-17" x="297.600562" y="181.68"></use><use xlink:href="#page4_glyph3-6" x="304.259941" y="181.68"></use><use xlink:href="#page4_glyph3-14" x="307.58963" y="181.68"></use><use xlink:href="#page4_glyph3-13" x="314.249009" y="181.68"></use><use xlink:href="#page4_glyph3-6" x="317.578698" y="181.68"></use><use xlink:href="#page4_glyph3-23" x="320.908388" y="181.68"></use><use xlink:href="#page4_glyph3-4" x="326.897038" y="181.68"></use><use xlink:href="#page4_glyph3-21" x="333.556416" y="181.68"></use><use xlink:href="#page4_glyph3-7" x="340.215795" y="181.68"></use></g><g class="page4_style1"><use xlink:href="#page4_glyph3-16" x="342.960668" y="181.68"></use><use xlink:href="#page4_glyph3-10" x="348.949318" y="181.68"></use><use xlink:href="#page4_glyph3-12" x="355.608697" y="181.68"></use><use xlink:href="#page4_glyph3-14" x="358.267657" y="181.68"></use><use xlink:href="#page4_glyph3-6" x="364.927036" y="181.68"></use><use xlink:href="#page4_glyph3-31" x="368.256725" y="181.68"></use><use xlink:href="#page4_glyph3-10" x="370.915686" y="181.68"></use><use xlink:href="#page4_glyph3-9" x="377.575065" y="181.68"></use><use xlink:href="#page4_glyph3-13" x="383.563715" y="181.68"></use><use xlink:href="#page4_glyph3-2" x="386.893404" y="181.68"></use><use xlink:href="#page4_glyph3-19" x="393.552783" y="181.68"></use></g><g class="page4_style1"><use xlink:href="#page4_glyph3-6" x="397.2" y="181.68"></use></g><g class="page4_style1"><use xlink:href="#page4_glyph3-27" x="400.56" y="181.68"></use><use xlink:href="#page4_glyph3-21" x="408.548859" y="181.68"></use><use xlink:href="#page4_glyph3-14" x="415.208238" y="181.68"></use><use xlink:href="#page4_glyph3-9" x="421.867617" y="181.68"></use><use xlink:href="#page4_glyph3-4" x="427.856267" y="181.68"></use><use xlink:href="#page4_glyph3-12" x="434.515646" y="181.68"></use><use xlink:href="#page4_glyph3-12" x="437.174606" y="181.68"></use><use xlink:href="#page4_glyph3-10" x="439.833567" y="181.68"></use><use xlink:href="#page4_glyph3-9" x="446.492946" y="181.68"></use><use xlink:href="#page4_glyph3-6" x="452.481596" y="181.68"></use><use xlink:href="#page4_glyph3-9" x="455.811285" y="181.68"></use><use xlink:href="#page4_glyph3-7" x="461.799935" y="181.68"></use></g><g class="page4_style1"><use xlink:href="#page4_glyph3-13" x="464.400149" y="181.68"></use><use xlink:href="#page4_glyph3-6" x="467.729838" y="181.68"></use><use xlink:href="#page4_glyph3-14" x="471.059528" y="181.68"></use><use xlink:href="#page4_glyph3-5" x="477.718907" y="181.68"></use><use xlink:href="#page4_glyph3-4" x="487.707975" y="181.68"></use><use xlink:href="#page4_glyph3-13" x="494.367354" y="181.68"></use><use xlink:href="#page4_glyph3-6" x="497.697043" y="181.68"></use></g><g class="page4_style1"><use xlink:href="#page4_glyph3-11" x="501.120235" y="181.68"></use><use xlink:href="#page4_glyph3-10" x="507.779614" y="181.68"></use><use xlink:href="#page4_glyph3-7" x="514.438992" y="181.68"></use></g><g class="page4_style1"><use xlink:href="#page4_glyph3-6" x="516.960271" y="181.68"></use><use xlink:href="#page4_glyph3-5" x="520.289961" y="181.68"></use><use xlink:href="#page4_glyph3-7" x="530.279029" y="181.68"></use></g><g class="page4_style1"><use xlink:href="#page4_glyph3-19" x="532.800308" y="181.68"></use><use xlink:href="#page4_glyph3-6" x="536.129998" y="181.68"></use></g><g class="page4_style1"><use xlink:href="#page4_glyph3-32" x="56.88" y="195.6"></use><use xlink:href="#page4_glyph3-7" x="64.868859" y="195.6"></use></g><g class="page4_style1"><use xlink:href="#page4_glyph3-23" x="67.200024" y="195.6"></use><use xlink:href="#page4_glyph3-14" x="73.188674" y="195.6"></use><use xlink:href="#page4_glyph3-5" x="79.848053" y="195.6"></use><use xlink:href="#page4_glyph3-10" x="89.837121" y="195.6"></use><use xlink:href="#page4_glyph3-9" x="96.4965" y="195.6"></use><use xlink:href="#page4_glyph3-6" x="102.48515" y="195.6"></use><use xlink:href="#page4_glyph3-14" x="105.814839" y="195.6"></use><use xlink:href="#page4_glyph3-10" x="112.474218" y="195.6"></use><use xlink:href="#page4_glyph3-16" x="119.133597" y="195.6"></use><use xlink:href="#page4_glyph3-13" x="125.122247" y="195.6"></use><use xlink:href="#page4_glyph3-2" x="128.451936" y="195.6"></use><use xlink:href="#page4_glyph3-3" x="135.111315" y="195.6"></use></g><g class="page4_style1"><use xlink:href="#page4_glyph3-6" x="139.680194" y="195.6"></use></g><g class="page4_style1"><use xlink:href="#page4_glyph3-21" x="142.800201" y="195.6"></use><use xlink:href="#page4_glyph3-4" x="149.45958" y="195.6"></use><use xlink:href="#page4_glyph3-17" x="156.118959" y="195.6"></use><use xlink:href="#page4_glyph3-11" x="162.778338" y="195.6"></use></g><g class="page4_style1"><use xlink:href="#page4_glyph3-3" x="169.440263" y="195.6"></use></g><g class="page4_style1"><use xlink:href="#page4_glyph3-4" x="173.520273" y="195.6"></use><use xlink:href="#page4_glyph3-3" x="180.179652" y="195.6"></use></g><g class="page4_style1"><use xlink:href="#page4_glyph3-7" x="184.320298" y="195.6"></use></g><g class="page4_style1"><use xlink:href="#page4_glyph3-13" x="186.720303" y="195.6"></use><use xlink:href="#page4_glyph3-6" x="190.049993" y="195.6"></use><use xlink:href="#page4_glyph3-4" x="193.379682" y="195.6"></use><use xlink:href="#page4_glyph3-9" x="200.039061" y="195.6"></use><use xlink:href="#page4_glyph3-13" x="206.027711" y="195.6"></use><use xlink:href="#page4_glyph3-6" x="209.3574" y="195.6"></use><use xlink:href="#page4_glyph3-7" x="212.68709" y="195.6"></use></g><g class="page4_style1"><use xlink:href="#page4_glyph3-11" x="215.28037" y="195.6"></use><use xlink:href="#page4_glyph3-6" x="221.939749" y="195.6"></use><use xlink:href="#page4_glyph3-9" x="225.269438" y="195.6"></use><use xlink:href="#page4_glyph3-10" x="231.258088" y="195.6"></use><use xlink:href="#page4_glyph3-9" x="237.917467" y="195.6"></use><use xlink:href="#page4_glyph3-16" x="243.906117" y="195.6"></use><use xlink:href="#page4_glyph3-7" x="249.894767" y="195.6"></use></g><g class="page4_style1"><use xlink:href="#page4_glyph3-8" x="252.480457" y="195.6"></use></g><g class="page4_style1"><use xlink:href="#page4_glyph3-7" x="259.440473" y="195.6"></use></g><g class="page4_style1"><use xlink:href="#page4_glyph3-13" x="261.840478" y="195.6"></use><use xlink:href="#page4_glyph3-19" x="265.170168" y="195.6"></use><use xlink:href="#page4_glyph3-6" x="268.499857" y="195.6"></use><use xlink:href="#page4_glyph3-33" x="271.829547" y="195.6"></use><use xlink:href="#page4_glyph3-4" x="279.818406" y="195.6"></use><use xlink:href="#page4_glyph3-11" x="286.477784" y="195.6"></use><use xlink:href="#page4_glyph3-6" x="293.137163" y="195.6"></use><use xlink:href="#page4_glyph3-11" x="296.466853" y="195.6"></use><use xlink:href="#page4_glyph3-10" x="303.126231" y="195.6"></use><use xlink:href="#page4_glyph3-7" x="309.78561" y="195.6"></use></g><g class="page4_style1"><use xlink:href="#page4_glyph3-6" x="312.480597" y="195.6"></use><use xlink:href="#page4_glyph3-5" x="315.810286" y="195.6"></use><use xlink:href="#page4_glyph3-7" x="325.799354" y="195.6"></use></g><g class="page4_style1"><use xlink:href="#page4_glyph3-15" x="328.320633" y="195.6"></use><use xlink:href="#page4_glyph3-6" x="331.650323" y="195.6"></use><use xlink:href="#page4_glyph3-8" x="334.980012" y="195.6"></use><use xlink:href="#page4_glyph3-12" x="341.639391" y="195.6"></use><use xlink:href="#page4_glyph3-14" x="344.298352" y="195.6"></use><use xlink:href="#page4_glyph3-16" x="350.95773" y="195.6"></use><use xlink:href="#page4_glyph3-4" x="356.94638" y="195.6"></use><use xlink:href="#page4_glyph3-3" x="363.605759" y="195.6"></use></g><g class="page4_style1"><use xlink:href="#page4_glyph3-14" x="367.920726" y="195.6"></use><use xlink:href="#page4_glyph3-13" x="374.580105" y="195.6"></use><use xlink:href="#page4_glyph3-6" x="377.909795" y="195.6"></use><use xlink:href="#page4_glyph3-23" x="381.239484" y="195.6"></use><use xlink:href="#page4_glyph3-4" x="387.228134" y="195.6"></use><use xlink:href="#page4_glyph3-12" x="393.887513" y="195.6"></use><use xlink:href="#page4_glyph3-6" x="396.546473" y="195.6"></use><use xlink:href="#page4_glyph3-25" x="399.876163" y="195.6"></use><use xlink:href="#page4_glyph3-4" x="403.205852" y="195.6"></use><use xlink:href="#page4_glyph3-3" x="409.865231" y="195.6"></use></g><g class="page4_style1"><use xlink:href="#page4_glyph3-5" x="414.240835" y="195.6"></use></g><g class="page4_style1"><use xlink:href="#page4_glyph3-4" x="424.080857" y="195.6"></use><use xlink:href="#page4_glyph3-17" x="430.740236" y="195.6"></use><use xlink:href="#page4_glyph3-13" x="437.399615" y="195.6"></use><use xlink:href="#page4_glyph3-10" x="440.729304" y="195.6"></use><use xlink:href="#page4_glyph3-5" x="447.388683" y="195.6"></use></g><g class="page4_style1"><use xlink:href="#page4_glyph3-6" x="457.440935" y="195.6"></use><use xlink:href="#page4_glyph3-14" x="460.770625" y="195.6"></use><use xlink:href="#page4_glyph3-16" x="467.430003" y="195.6"></use><use xlink:href="#page4_glyph3-15" x="473.418653" y="195.6"></use><use xlink:href="#page4_glyph3-6" x="476.748343" y="195.6"></use><use xlink:href="#page4_glyph3-12" x="480.078032" y="195.6"></use><use xlink:href="#page4_glyph3-10" x="482.736993" y="195.6"></use><use xlink:href="#page4_glyph3-16" x="489.396372" y="195.6"></use><use xlink:href="#page4_glyph3-13" x="495.385022" y="195.6"></use><use xlink:href="#page4_glyph3-10" x="498.714711" y="195.6"></use><use xlink:href="#page4_glyph3-9" x="505.37409" y="195.6"></use><use xlink:href="#page4_glyph3-6" x="511.36274" y="195.6"></use><use xlink:href="#page4_glyph3-9" x="514.692429" y="195.6"></use><use xlink:href="#page4_glyph3-7" x="520.681079" y="195.6"></use></g><g class="page4_style1"><use xlink:href="#page4_glyph3-13" x="523.441089" y="195.6"></use><use xlink:href="#page4_glyph3-6" x="526.770779" y="195.6"></use></g><g class="page4_style1"><use xlink:href="#page4_glyph3-14" x="56.88" y="209.28"></use><use xlink:href="#page4_glyph3-5" x="63.539379" y="209.28"></use><use xlink:href="#page4_glyph3-4" x="73.528447" y="209.28"></use><use xlink:href="#page4_glyph3-13" x="80.187826" y="209.28"></use><use xlink:href="#page4_glyph3-6" x="83.517515" y="209.28"></use><use xlink:href="#page4_glyph3-13" x="86.847205" y="209.28"></use><use xlink:href="#page4_glyph3-2" x="90.176894" y="209.28"></use></g><g class="page4_style1"><use xlink:href="#page4_glyph3-3" x="96.960094" y="209.28"></use></g><g class="page4_style1"><use xlink:href="#page4_glyph3-13" x="101.040104" y="209.28"></use><use xlink:href="#page4_glyph3-2" x="104.369793" y="209.28"></use><use xlink:href="#page4_glyph3-3" x="111.029172" y="209.28"></use></g><g class="page4_style1"><use xlink:href="#page4_glyph3-19" x="114.720135" y="209.28"></use><use xlink:href="#page4_glyph3-6" x="118.049824" y="209.28"></use><use xlink:href="#page4_glyph3-29" x="121.379514" y="209.28"></use></g><g class="page4_style1"><use xlink:href="#page4_glyph3-10" x="130.560172" y="209.28"></use><use xlink:href="#page4_glyph3-7" x="137.219551" y="209.28"></use></g><g class="page4_style1"><use xlink:href="#page4_glyph3-9" x="139.680193" y="209.28"></use><use xlink:href="#page4_glyph3-28" x="145.668843" y="209.28"></use></g><g class="page4_style1"><use xlink:href="#page4_glyph3-10" x="152.160223" y="209.28"></use><use xlink:href="#page4_glyph3-4" x="158.819601" y="209.28"></use><use xlink:href="#page4_glyph3-6" x="165.47898" y="209.28"></use><use xlink:href="#page4_glyph3-8" x="168.80867" y="209.28"></use><use xlink:href="#page4_glyph3-2" x="175.468048" y="209.28"></use><use xlink:href="#page4_glyph3-3" x="182.127427" y="209.28"></use></g><g class="page4_style1"><use xlink:href="#page4_glyph3-13" x="186.480303" y="209.28"></use><use xlink:href="#page4_glyph3-14" x="189.809992" y="209.28"></use><use xlink:href="#page4_glyph3-6" x="196.469371" y="209.28"></use><use xlink:href="#page4_glyph3-17" x="199.79906" y="209.28"></use><use xlink:href="#page4_glyph3-7" x="206.458439" y="209.28"></use></g><g class="page4_style1"><use xlink:href="#page4_glyph3-9" x="209.040355" y="209.28"></use></g><g class="page4_style1"><use xlink:href="#page4_glyph3-7" x="215.280371" y="209.28"></use></g><g class="page4_style1"><use xlink:href="#page4_glyph3-6" x="217.680376" y="209.28"></use><use xlink:href="#page4_glyph3-8" x="221.010065" y="209.28"></use><use xlink:href="#page4_glyph3-4" x="227.669444" y="209.28"></use><use xlink:href="#page4_glyph3-12" x="234.328823" y="209.28"></use><use xlink:href="#page4_glyph3-12" x="236.987784" y="209.28"></use><use xlink:href="#page4_glyph3-4" x="239.646744" y="209.28"></use><use xlink:href="#page4_glyph3-17" x="246.306123" y="209.28"></use><use xlink:href="#page4_glyph3-13" x="252.965502" y="209.28"></use><use xlink:href="#page4_glyph3-4" x="256.295191" y="209.28"></use><use xlink:href="#page4_glyph3-9" x="262.95457" y="209.28"></use><use xlink:href="#page4_glyph3-28" x="268.94322" y="209.28"></use></g><g class="page4_style1"><use xlink:href="#page4_glyph3-10" x="275.760511" y="209.28"></use><use xlink:href="#page4_glyph3-4" x="282.41989" y="209.28"></use><use xlink:href="#page4_glyph3-6" x="289.079269" y="209.28"></use><use xlink:href="#page4_glyph3-13" x="292.408958" y="209.28"></use><use xlink:href="#page4_glyph3-3" x="295.738647" y="209.28"></use></g><g class="page4_style1"><use xlink:href="#page4_glyph3-7" x="299.760567" y="209.28"></use></g><g class="page4_style1"><use xlink:href="#page4_glyph3-9" x="302.160573" y="209.28"></use><use xlink:href="#page4_glyph3-13" x="308.149223" y="209.28"></use></g><g class="page4_style1"><use xlink:href="#page4_glyph3-7" x="311.760595" y="209.28"></use><use xlink:href="#page4_glyph3-28" x="314.419556" y="209.28"></use></g><g class="page4_style1"><use xlink:href="#page4_glyph3-10" x="320.880617" y="209.28"></use><use xlink:href="#page4_glyph3-4" x="327.539996" y="209.28"></use><use xlink:href="#page4_glyph3-6" x="334.199375" y="209.28"></use><use xlink:href="#page4_glyph3-9" x="337.529064" y="209.28"></use><use xlink:href="#page4_glyph3-4" x="343.517714" y="209.28"></use><use xlink:href="#page4_glyph3-5" x="350.177093" y="209.28"></use><use xlink:href="#page4_glyph3-8" x="360.166161" y="209.28"></use><use xlink:href="#page4_glyph3-4" x="366.82554" y="209.28"></use><use xlink:href="#page4_glyph3-3" x="373.484919" y="209.28"></use></g><g class="page4_style1"><use xlink:href="#page4_glyph3-19" x="377.520749" y="209.28"></use><use xlink:href="#page4_glyph3-6" x="380.850439" y="209.28"></use><use xlink:href="#page4_glyph3-20" x="384.180128" y="209.28"></use><use xlink:href="#page4_glyph3-17" x="387.509818" y="209.28"></use><use xlink:href="#page4_glyph3-13" x="394.169196" y="209.28"></use></g><g class="page4_style1"><use xlink:href="#page4_glyph3-4" x="397.440796" y="209.28"></use><use xlink:href="#page4_glyph3-18" x="404.100175" y="209.28"></use><use xlink:href="#page4_glyph3-4" x="410.759553" y="209.28"></use><use xlink:href="#page4_glyph3-3" x="417.418932" y="209.28"></use></g><g class="page4_style1"><use xlink:href="#page4_glyph3-6" x="421.680852" y="209.28"></use><use xlink:href="#page4_glyph3-9" x="425.010541" y="209.28"></use></g><g class="page4_style1"><use xlink:href="#page4_glyph3-10" x="430.800874" y="209.28"></use><use xlink:href="#page4_glyph3-9" x="437.460252" y="209.28"></use><use xlink:href="#page4_glyph3-16" x="443.448902" y="209.28"></use><use xlink:href="#page4_glyph3-7" x="449.437552" y="209.28"></use></g><g class="page4_style1"><use xlink:href="#page4_glyph3-8" x="451.920923" y="209.28"></use><use xlink:href="#page4_glyph3-7" x="458.580302" y="209.28"></use></g><g class="page4_style1"><use xlink:href="#page4_glyph3-13" x="461.040945" y="209.28"></use><use xlink:href="#page4_glyph3-6" x="464.370635" y="209.28"></use><use xlink:href="#page4_glyph3-13" x="467.700324" y="209.28"></use><use xlink:href="#page4_glyph3-2" x="471.030013" y="209.28"></use><use xlink:href="#page4_glyph3-3" x="477.689392" y="209.28"></use></g><g class="page4_style1"><use xlink:href="#page4_glyph3-13" x="481.920994" y="209.28"></use><use xlink:href="#page4_glyph3-2" x="485.250683" y="209.28"></use><use xlink:href="#page4_glyph3-3" x="491.910062" y="209.28"></use></g><g class="page4_style1"><use xlink:href="#page4_glyph3-6" x="496.081027" y="209.28"></use><use xlink:href="#page4_glyph3-3" x="499.410717" y="209.28"></use></g><g class="page4_style1"><use xlink:href="#page4_glyph3-7" x="503.521045" y="209.28"></use></g><g class="page4_style1"><use xlink:href="#page4_glyph3-9" x="505.92105" y="209.28"></use><use xlink:href="#page4_glyph3-10" x="511.9097" y="209.28"></use><use xlink:href="#page4_glyph3-9" x="518.569079" y="209.28"></use><use xlink:href="#page4_glyph3-15" x="524.557729" y="209.28"></use><use xlink:href="#page4_glyph3-6" x="527.887418" y="209.28"></use><use xlink:href="#page4_glyph3-7" x="531.217108" y="209.28"></use></g><g class="page4_style1"><use xlink:href="#page4_glyph3-11" x="533.761115" y="209.28"></use><use xlink:href="#page4_glyph3-6" x="540.420494" y="209.28"></use></g><g class="page4_style1"><use xlink:href="#page4_glyph3-4" x="56.88" y="222.96"></use><use xlink:href="#page4_glyph3-12" x="63.539379" y="222.96"></use><use xlink:href="#page4_glyph3-4" x="66.198339" y="222.96"></use><use xlink:href="#page4_glyph3-7" x="72.857718" y="222.96"></use></g><g class="page4_style1"><use xlink:href="#page4_glyph3-25" x="75.360043" y="222.96"></use><use xlink:href="#page4_glyph3-4" x="78.689733" y="222.96"></use><use xlink:href="#page4_glyph3-17" x="85.349111" y="222.96"></use><use xlink:href="#page4_glyph3-11" x="92.00849" y="222.96"></use><use xlink:href="#page4_glyph3-6" x="98.667869" y="222.96"></use><use xlink:href="#page4_glyph3-5" x="101.997558" y="222.96"></use><use xlink:href="#page4_glyph3-14" x="111.986627" y="222.96"></use><use xlink:href="#page4_glyph3-9" x="118.646005" y="222.96"></use><use xlink:href="#page4_glyph3-9" x="124.634655" y="222.96"></use><use xlink:href="#page4_glyph3-14" x="130.623305" y="222.96"></use><use xlink:href="#page4_glyph3-6" x="137.282684" y="222.96"></use><use xlink:href="#page4_glyph3-8" x="140.612374" y="222.96"></use><use xlink:href="#page4_glyph3-4" x="147.271752" y="222.96"></use><use xlink:href="#page4_glyph3-12" x="153.931131" y="222.96"></use><use xlink:href="#page4_glyph3-12" x="156.590092" y="222.96"></use><use xlink:href="#page4_glyph3-4" x="159.249052" y="222.96"></use><use xlink:href="#page4_glyph3-17" x="165.908431" y="222.96"></use></g><g class="page4_style1"><use xlink:href="#page4_glyph3-13" x="173.040271" y="222.96"></use><use xlink:href="#page4_glyph3-4" x="176.369961" y="222.96"></use><use xlink:href="#page4_glyph3-9" x="183.02934" y="222.96"></use><use xlink:href="#page4_glyph3-28" x="189.01799" y="222.96"></use></g><g class="page4_style1"><use xlink:href="#page4_glyph3-10" x="195.600324" y="222.96"></use><use xlink:href="#page4_glyph3-4" x="202.259703" y="222.96"></use><use xlink:href="#page4_glyph3-6" x="208.919082" y="222.96"></use><use xlink:href="#page4_glyph3-28" x="212.248771" y="222.96"></use></g><g class="page4_style1"><use xlink:href="#page4_glyph3-10" x="218.880378" y="222.96"></use><use xlink:href="#page4_glyph3-7" x="225.539757" y="222.96"></use></g><g class="page4_style1"><use xlink:href="#page4_glyph3-9" x="228.0004" y="222.96"></use><use xlink:href="#page4_glyph3-19" x="233.98905" y="222.96"></use><use xlink:href="#page4_glyph3-6" x="237.318739" y="222.96"></use><use xlink:href="#page4_glyph3-26" x="240.648429" y="222.96"></use><use xlink:href="#page4_glyph3-2" x="250.673429" y="222.96"></use><use xlink:href="#page4_glyph3-3" x="257.332808" y="222.96"></use></g><g class="page4_style1"><use xlink:href="#page4_glyph3-24" x="261.600479" y="222.96"></use><use xlink:href="#page4_glyph3-7" x="268.259858" y="222.96"></use></g><g class="page4_style1"><use xlink:href="#page4_glyph3-6" x="270.72" y="222.96"></use></g><g class="page4_style1"><use xlink:href="#page4_glyph3-7" x="274.32" y="222.96"></use></g><g class="page4_style1"><use xlink:href="#page4_glyph3-17" x="276.720005" y="222.96"></use><use xlink:href="#page4_glyph3-6" x="283.379384" y="222.96"></use><use xlink:href="#page4_glyph3-17" x="286.709074" y="222.96"></use><use xlink:href="#page4_glyph3-10" x="293.368452" y="222.96"></use><use xlink:href="#page4_glyph3-17" x="300.027831" y="222.96"></use><use xlink:href="#page4_glyph3-16" x="306.68721" y="222.96"></use><use xlink:href="#page4_glyph3-6" x="312.67586" y="222.96"></use><use xlink:href="#page4_glyph3-23" x="316.005549" y="222.96"></use><use xlink:href="#page4_glyph3-10" x="321.994199" y="222.96"></use><use xlink:href="#page4_glyph3-12" x="328.653578" y="222.96"></use><use xlink:href="#page4_glyph3-8" x="331.312539" y="222.96"></use><use xlink:href="#page4_glyph3-10" x="337.971918" y="222.96"></use><use xlink:href="#page4_glyph3-13" x="344.631296" y="222.96"></use><use xlink:href="#page4_glyph3-14" x="347.960986" y="222.96"></use><use xlink:href="#page4_glyph3-13" x="354.620365" y="222.96"></use><use xlink:href="#page4_glyph3-4" x="357.950054" y="222.96"></use></g><g class="page4_style1"><use xlink:href="#page4_glyph3-15" x="365.040212" y="222.96"></use><use xlink:href="#page4_glyph3-6" x="368.369901" y="222.96"></use><use xlink:href="#page4_glyph3-16" x="371.699591" y="222.96"></use><use xlink:href="#page4_glyph3-2" x="377.688241" y="222.96"></use><use xlink:href="#page4_glyph3-17" x="384.34762" y="222.96"></use><use xlink:href="#page4_glyph3-9" x="391.006998" y="222.96"></use><use xlink:href="#page4_glyph3-4" x="396.995648" y="222.96"></use><use xlink:href="#page4_glyph3-28" x="403.655027" y="222.96"></use></g><g class="page4_style1"><use xlink:href="#page4_glyph3-10" x="410.400318" y="222.96"></use><use xlink:href="#page4_glyph3-14" x="417.059697" y="222.96"></use><use xlink:href="#page4_glyph3-13" x="423.719076" y="222.96"></use><use xlink:href="#page4_glyph3-6" x="427.048765" y="222.96"></use><use xlink:href="#page4_glyph3-11" x="430.378454" y="222.96"></use><use xlink:href="#page4_glyph3-10" x="437.037833" y="222.96"></use><use xlink:href="#page4_glyph3-7" x="443.697212" y="222.96"></use></g><g class="page4_style1"><use xlink:href="#page4_glyph3-6" x="446.400402" y="222.96"></use><use xlink:href="#page4_glyph3-10" x="449.730091" y="222.96"></use><use xlink:href="#page4_glyph3-13" x="456.38947" y="222.96"></use><use xlink:href="#page4_glyph3-15" x="459.71916" y="222.96"></use><use xlink:href="#page4_glyph3-6" x="463.048849" y="222.96"></use><use xlink:href="#page4_glyph3-16" x="466.378538" y="222.96"></use><use xlink:href="#page4_glyph3-2" x="472.367188" y="222.96"></use><use xlink:href="#page4_glyph3-17" x="479.026567" y="222.96"></use></g><g class="page4_style1"><use xlink:href="#page4_glyph3-18" x="485.760494" y="222.96"></use><use xlink:href="#page4_glyph3-10" x="492.419873" y="222.96"></use><use xlink:href="#page4_glyph3-4" x="499.079252" y="222.96"></use><use xlink:href="#page4_glyph3-6" x="505.73863" y="222.96"></use><use xlink:href="#page4_glyph3-5" x="509.06832" y="222.96"></use></g><g class="page4_style1"><use xlink:href="#page4_glyph3-14" x="519.120572" y="222.96"></use><use xlink:href="#page4_glyph3-9" x="525.779951" y="222.96"></use><use xlink:href="#page4_glyph3-9" x="531.768601" y="222.96"></use><use xlink:href="#page4_glyph3-14" x="537.757251" y="222.96"></use></g><g class="page4_style1"><use xlink:href="#page4_glyph3-19" x="544.320631" y="222.96"></use><use xlink:href="#page4_glyph3-6" x="547.65032" y="222.96"></use></g><g class="page4_style1"><use xlink:href="#page4_glyph3-32" x="56.88" y="236.88"></use><use xlink:href="#page4_glyph3-7" x="64.868859" y="236.88"></use></g><g class="page4_style1"><use xlink:href="#page4_glyph3-23" x="67.200024" y="236.88"></use><use xlink:href="#page4_glyph3-14" x="73.188674" y="236.88"></use><use xlink:href="#page4_glyph3-5" x="79.848053" y="236.88"></use><use xlink:href="#page4_glyph3-10" x="89.837121" y="236.88"></use><use xlink:href="#page4_glyph3-9" x="96.4965" y="236.88"></use><use xlink:href="#page4_glyph3-6" x="102.48515" y="236.88"></use><use xlink:href="#page4_glyph3-16" x="105.814839" y="236.88"></use><use xlink:href="#page4_glyph3-2" x="111.803489" y="236.88"></use><use xlink:href="#page4_glyph3-5" x="118.462868" y="236.88"></use><use xlink:href="#page4_glyph3-5" x="128.451936" y="236.88"></use><use xlink:href="#page4_glyph3-2" x="138.441004" y="236.88"></use></g><g class="page4_style1"><use xlink:href="#page4_glyph3-11" x="145.440207" y="236.88"></use><use xlink:href="#page4_glyph3-2" x="152.099585" y="236.88"></use><use xlink:href="#page4_glyph3-6" x="158.758964" y="236.88"></use><use xlink:href="#page4_glyph3-7" x="162.088654" y="236.88"></use></g><g class="page4_style1"><use xlink:href="#page4_glyph3-11" x="164.640251" y="236.88"></use><use xlink:href="#page4_glyph3-6" x="171.29963" y="236.88"></use><use xlink:href="#page4_glyph3-5" x="174.629319" y="236.88"></use><use xlink:href="#page4_glyph3-7" x="184.618388" y="236.88"></use></g><g class="page4_style1"><use xlink:href="#page4_glyph3-6" x="187.200304" y="236.88"></use><use xlink:href="#page4_glyph3-28" x="190.529993" y="236.88"></use></g><g class="page4_style1"><use xlink:href="#page4_glyph3-10" x="197.040327" y="236.88"></use></g><g class="page4_style1"><use xlink:href="#page4_glyph3-7" x="204.000343" y="236.88"></use></g><g class="page4_style1"><use xlink:href="#page4_glyph3-9" x="206.400348" y="236.88"></use><use xlink:href="#page4_glyph3-6" x="212.388998" y="236.88"></use><use xlink:href="#page4_glyph3-8" x="215.718688" y="236.88"></use><use xlink:href="#page4_glyph3-10" x="222.378066" y="236.88"></use><use xlink:href="#page4_glyph3-12" x="229.037445" y="236.88"></use><use xlink:href="#page4_glyph3-23" x="231.696406" y="236.88"></use></g><g class="page4_style1"><use xlink:href="#page4_glyph3-7" x="238.080422" y="236.88"></use></g><g class="page4_style1"><use xlink:href="#page4_glyph3-17" x="240.480427" y="236.88"></use><use xlink:href="#page4_glyph3-14" x="247.139806" y="236.88"></use><use xlink:href="#page4_glyph3-3" x="253.799185" y="236.88"></use></g><g class="page4_style1"><use xlink:href="#page4_glyph3-19" x="257.520467" y="236.88"></use><use xlink:href="#page4_glyph3-6" x="260.850157" y="236.88"></use><use xlink:href="#page4_glyph3-30" x="264.179846" y="236.88"></use><use xlink:href="#page4_glyph3-10" x="272.827457" y="236.88"></use><use xlink:href="#page4_glyph3-3" x="279.486835" y="236.88"></use></g><g class="page4_style1"><use xlink:href="#page4_glyph3-14" x="283.680529" y="236.88"></use><use xlink:href="#page4_glyph3-24" x="290.339908" y="236.88"></use><use xlink:href="#page4_glyph3-7" x="296.999286" y="236.88"></use></g><g class="page4_style1"><use xlink:href="#page4_glyph3-13" x="299.520566" y="236.88"></use><use xlink:href="#page4_glyph3-10" x="302.850255" y="236.88"></use><use xlink:href="#page4_glyph3-3" x="309.509634" y="236.88"></use></g><g class="page4_style1"><use xlink:href="#page4_glyph3-6" x="313.680599" y="236.88"></use><use xlink:href="#page4_glyph3-10" x="317.010289" y="236.88"></use><use xlink:href="#page4_glyph3-13" x="323.669667" y="236.88"></use><use xlink:href="#page4_glyph3-6" x="326.999357" y="236.88"></use><use xlink:href="#page4_glyph3-8" x="330.329046" y="236.88"></use></g><g class="page4_style1"><use xlink:href="#page4_glyph3-3" x="336.960653" y="236.88"></use></g><g class="page4_style1"><use xlink:href="#page4_glyph3-4" x="341.040663" y="236.88"></use><use xlink:href="#page4_glyph3-13" x="347.700042" y="236.88"></use><use xlink:href="#page4_glyph3-7" x="351.029731" y="236.88"></use></g><g class="page4_style1"><use xlink:href="#page4_glyph3-10" x="353.520692" y="236.88"></use><use xlink:href="#page4_glyph3-5" x="360.180071" y="236.88"></use><use xlink:href="#page4_glyph3-6" x="370.169139" y="236.88"></use><use xlink:href="#page4_glyph3-13" x="373.498829" y="236.88"></use><use xlink:href="#page4_glyph3-10" x="376.828518" y="236.88"></use><use xlink:href="#page4_glyph3-3" x="383.487897" y="236.88"></use></g><g class="page4_style1"><use xlink:href="#page4_glyph3-8" x="387.840772" y="236.88"></use><use xlink:href="#page4_glyph3-7" x="394.500151" y="236.88"></use></g><g class="page4_style1"><use xlink:href="#page4_glyph3-9" x="396.960794" y="236.88"></use><use xlink:href="#page4_glyph3-15" x="402.949444" y="236.88"></use><use xlink:href="#page4_glyph3-6" x="406.279133" y="236.88"></use><use xlink:href="#page4_glyph3-9" x="409.608823" y="236.88"></use><use xlink:href="#page4_glyph3-7" x="415.597473" y="236.88"></use></g><g class="page4_style1"><use xlink:href="#page4_glyph3-13" x="418.080844" y="236.88"></use><use xlink:href="#page4_glyph3-6" x="421.410533" y="236.88"></use><use xlink:href="#page4_glyph3-14" x="424.740222" y="236.88"></use><use xlink:href="#page4_glyph3-5" x="431.399601" y="236.88"></use><use xlink:href="#page4_glyph3-4" x="441.388669" y="236.88"></use><use xlink:href="#page4_glyph3-13" x="448.048048" y="236.88"></use><use xlink:href="#page4_glyph3-6" x="451.377738" y="236.88"></use><use xlink:href="#page4_glyph3-13" x="454.707427" y="236.88"></use><use xlink:href="#page4_glyph3-7" x="458.037116" y="236.88"></use></g><g class="page4_style1"><use xlink:href="#page4_glyph3-17" x="460.800943" y="236.88"></use><use xlink:href="#page4_glyph3-16" x="467.460322" y="236.88"></use><use xlink:href="#page4_glyph3-7" x="473.448972" y="236.88"></use></g><g class="page4_style1"><use xlink:href="#page4_glyph3-11" x="475.920979" y="236.88"></use><use xlink:href="#page4_glyph3-10" x="482.580358" y="236.88"></use><use xlink:href="#page4_glyph3-17" x="489.239737" y="236.88"></use><use xlink:href="#page4_glyph3-13" x="495.899116" y="236.88"></use><use xlink:href="#page4_glyph3-6" x="499.228805" y="236.88"></use><use xlink:href="#page4_glyph3-17" x="502.558494" y="236.88"></use><use xlink:href="#page4_glyph3-10" x="509.217873" y="236.88"></use><use xlink:href="#page4_glyph3-12" x="515.877252" y="236.88"></use><use xlink:href="#page4_glyph3-12" x="518.536213" y="236.88"></use><use xlink:href="#page4_glyph3-14" x="521.195173" y="236.88"></use><use xlink:href="#page4_glyph3-19" x="527.854552" y="236.88"></use><use xlink:href="#page4_glyph3-6" x="531.184241" y="236.88"></use></g></g></svg>