<?xml version="1.0" standalone="no"?>
<!DOCTYPE svg PUBLIC "-//W3C//DTD SVG 1.1//EN" "http://www.w3.org/Graphics/SVG/1.1/DTD/svg11.dtd" >
<svg xmlns="http://www.w3.org/2000/svg">
<metadata>Generated by IcoMoon</metadata>
<defs>
<font id="udv-font" horiz-adv-x="1024">
<font-face units-per-em="1024" ascent="960" descent="-64" />
<missing-glyph horiz-adv-x="1024" />
<glyph unicode="&#x20;" horiz-adv-x="512" d="" />
<glyph unicode="&#xe900;" glyph-name="alpha-numeric" d="M344.496 826.032h23.552l245.104-579.712c15.12-34.112 28.592-56.448 40.352-66.944 15.776-13.776 39.328-20.688 70.896-20.688v-17.68h-275.616v17.68c48.544 0 72.816 14.416 72.816 43.296 0 11.792-4 26.528-12 44.224l-49.984 118.224h-260.96l-51.664-117.824c-7.44-17.776-11.216-32.576-11.216-44.448 0-13.808 5.936-24.496 17.792-32.080 11.76-7.568 31.792-11.376 60-11.376v-17.68h-213.568v17.68c22.912 0 41.968 7.888 57.12 23.648 12.4 13.136 25.232 34.448 38.352 63.984l249.024 579.696zM329.6 671.792l-115.904-269.968h226.832l-110.928 269.968zM868.848 711.264c0 8.96-2.064 20.464-6.352 34.592-9.472 30.784-14.080 48.736-14.080 53.84 0 9.424 2.432 17.216 7.328 23.408s11.040 9.328 18.288 9.328 13.36-3.136 18.304-9.328c4.88-6.192 7.28-13.984 7.28-23.408 0-5.968-4.496-23.68-13.44-53.168-4.688-15.392-6.976-27.168-6.976-35.264 7.184 4.224 21.472 17.904 42.528 41.024 9.424 10.224 17.408 17.296 23.776 21.152 6.496 3.808 12.864 5.76 19.376 5.76 9.456 0 16.528-3.856 21.216-11.52 1.84-3.008 2.672-6.672 2.672-10.912 0-11.536-6-20.736-18-27.6-28.592-8.944-57.248-17.904-85.856-26.912 6.416-3.872 17.184-7.488 32.528-10.928 30.896-7.216 48.784-12.144 53.44-14.736 11.888-7.28 17.888-16.656 17.888-28.176 0-3.856-1.088-7.472-3.264-10.928-3.824-7.248-10.784-10.832-21.12-10.832-7.2 0-13.488 1.456-18.608 4.48-5.152 2.928-18.176 15.984-39.152 39.040-10.192 11.168-19.376 19.072-27.424 23.728 0-8.96 2.064-20.48 6.368-34.592 9.408-31.216 14.032-49.168 14.032-53.824 0-9.456-2.4-17.232-7.28-23.408-4.944-6.208-11.056-9.328-18.304-9.328s-13.392 3.12-18.288 9.44c-4.896 6.24-7.328 14.16-7.328 23.664 0 6.064 4.352 23.84 13.456 53.456 4.656 15.392 6.992 27.104 6.992 35.264-22.304-20.96-44.752-41.696-67.040-62.192-6.416-3.84-12.912-5.728-19.408-5.728-10.304 0-17.424 3.6-21.232 10.768-1.664 3.008-2.576 6.624-2.576 10.912 0 11.92 6 21.232 18.192 28.096 5.632 2.944 19.472 6.752 41.568 11.456 22.096 4.656 37.664 9.568 46.72 14.656-7.36 4.304-18.272 8.096-33.008 11.536-32.592 7.664-50.864 12.512-54.8 14.656-12.384 8.096-18.672 17.664-18.672 28.768 0 3.376 1.136 6.8 3.216 10.176 4.64 7.664 12.032 11.52 21.808 11.52 6.032 0 12.416-1.696 19.28-5.136 21.696-20.912 43.76-41.888 65.952-62.8zM760.224 215.664l-38.784 0.16 141.040 235.952h20.48l141.040-235.968-40.848-0.304-111.216 187.232-111.712-187.072z" />
<glyph unicode="&#xe901;" glyph-name="annotation-btn" d="M416 960v-224h608v224h-608zM992 768h-544v160h544v-160zM228.080 208h228.448l-112.752 268.656zM384 704v256h-384v-1024h800v768h-416zM720-48h-256v22.448c32 1.312 43.568 5.712 52.896 13.232 9.312 7.52 13.568 16.672 13.568 27.456 0 14.368-6.736 35.664-19.808 66.704l-40.4 94.16h-257.376l-45.104-103.472c-11.104-25.808-16.672-44.384-16.672-57.12 0-10.144 2.784-18.688 12.432-26.352 9.648-7.68 28.464-12.32 60.464-14.592v-22.464h-208v22.448c32 4.912 47.136 11.264 55.296 19.104 16.672 15.68 35.824 49.44 56.080 97.472l234.544 548.976h17.152l231.392-554.848c18.624-44.464 33.184-74.224 48.384-87.472 15.2-13.232 45.152-21.6 61.152-23.232v-22.448z" />
<glyph unicode="&#xe902;" glyph-name="annotation-hidden-visibility" d="M416 960v-224h608v224h-608zM992 768h-544v160h544v-160zM224.528 208h227.568l-112.32 267.6zM592.688 287.328c-6.144 0-12.288 2.336-16.976 7.024-9.376 9.376-9.376 24.56 0 33.936l31.344 31.344c-13.648 8-27.184 16.592-40.448 26.336-52.896 38.864-83.744 77.568-85.024 79.184l-10.944 13.824 10.944 13.824c1.28 1.632 32.144 40.336 85.024 79.184 70.672 51.936 147.584 79.376 222.384 79.376 3.664 0 7.328-0.368 11.008-0.496v53.136h-416v256h-384v-1024h800v371.104c-3.664-0.128-7.344-0.496-11.008-0.496-45.568 0-91.872 10.32-137.088 30l-42.256-42.256c-4.672-4.688-10.816-7.024-16.96-7.024zM656.352-1.888c15.168-13.184 31.648-22.208 63.648-23.824v-22.288h-256v22.288c16 1.296 41.168 5.68 50.448 13.168 9.296 7.488 12.416 16.608 12.416 27.36 0 14.32-7.28 35.984-20.288 66.928l-40.816 94.256h-256.384l-44.928-103.552c-11.072-25.712-16.608-44.448-16.608-57.136 0-10.128 4.544-18.736 14.144-26.368 9.616-7.68 30.016-12.4 62.016-14.656v-22.288h-208v22.288c27.664 4.88 45.584 11.216 53.712 19.024 16.608 15.648 34.992 50.592 55.184 98.464l232.944 548.224h17.088l230.512-554.096c18.56-44.272 35.792-74.624 50.912-87.792zM672.144 503.024l-21.904 3.68c-2.16-8.896-3.328-18.176-3.328-27.712 0-22.688 6.544-43.824 17.664-61.84l16.128 16.128c-7.392 13.6-11.6 29.168-11.6 45.712 0 8.32 1.040 16.352 3.040 24.032zM610.112 433.024c-23.856 17.424-41.728 35.040-51.904 45.968 10.176 10.944 28.048 28.544 51.904 45.968 19.248 14.048 44.736 29.6 74.72 40.672l14.704-16.576c17.168 16.080 40.256 25.952 65.584 25.952 16.544 0 32.112-4.208 45.712-11.6l38.32 38.32c-27.92 9.344-56.16 14.32-84.032 14.32-59.488 0-120.624-21.808-176.8-63.104-42.080-30.896-66.576-61.664-67.6-62.944l-8.72-11.008 8.72-11.008c1.008-1.28 25.52-32.048 67.6-62.96 12.8-9.408 25.888-17.664 39.12-25.024l26.288 26.288c-16.656 8.56-31.488 17.888-43.616 26.736zM1009.504 490c-1.008 1.28-25.52 32.048-67.6 62.944-14.784 10.864-29.92 20.288-45.264 28.416l-26.416-26.416c19.312-9.344 36.24-20 49.888-29.968 23.84-17.424 41.728-35.024 51.904-45.968-10.176-10.944-28.064-28.544-51.904-45.968-19.248-14.064-44.736-29.6-74.72-40.672 23.28 21.6 37.904 52.432 37.904 86.64 0 25.152-7.952 48.448-21.392 67.616l-15.984-15.984c9.568-14.928 15.184-32.624 15.184-51.632 0-52.944-43.056-96-96-96-19.008 0-36.704 5.632-51.632 15.184l-39.552-39.552c30.24-10.992 60.928-16.704 91.168-16.704 59.488 0 120.624 21.84 176.8 63.104 42.080 30.896 66.576 61.664 67.6 62.96l8.72 11.008-8.704 10.992zM765.104 415.12c35.28 0 63.872 28.608 63.872 63.872 0 10.080-2.544 19.504-6.72 27.984l-85.136-85.136c8.496-4.176 17.888-6.72 27.984-6.72zM704 497.664c-1.792-5.92-2.768-12.176-2.768-18.672 0-7.504 1.536-14.592 3.904-21.28l34.016 34.016-35.152 5.936zM720.88 525.040l24.256-27.344 41.248 41.264c-6.688 2.368-13.76 3.904-21.264 3.904-17.2 0-32.784-6.784-44.24-17.824zM592.688 295.328c-4.096 0-8.192 1.568-11.312 4.688-6.256 6.256-6.256 16.368 0 22.624l308.656 308.672c6.256 6.256 16.368 6.256 22.624 0s6.256-16.368 0-22.624l-308.656-308.672c-3.12-3.12-7.216-4.688-11.312-4.688z" />
<glyph unicode="&#xe903;" glyph-name="annotation-show-visibility" d="M416 960v-224h608v224h-608zM992 768h-544v160h544v-160zM224.528 208h227.568l-112.32 267.6zM566.608 572.016c70.672 51.936 147.584 79.376 222.384 79.376 3.664 0 7.328-0.368 11.008-0.496v53.104h-416v256h-384v-1024h800v371.104c-3.664-0.128-7.344-0.496-11.008-0.496-74.816 0-151.712 27.456-222.384 79.376-52.896 38.864-83.744 77.568-85.024 79.184l-10.944 13.824 10.944 13.824c1.28 1.632 32.128 40.336 85.024 79.2zM605.44 85.904c18.56-44.288 35.792-74.624 50.928-87.792 15.152-13.184 31.632-22.208 63.632-23.824v-22.288h-256v22.288c16 1.296 41.168 5.68 50.448 13.168 9.296 7.488 12.416 16.608 12.416 27.36 0 14.32-7.28 35.984-20.288 66.928l-40.816 94.256h-256.384l-44.928-103.552c-11.072-25.712-16.608-44.448-16.608-57.136 0-10.128 4.544-18.736 14.144-26.368 9.616-7.68 30.016-12.4 62.016-14.656v-22.288h-208v22.288c27.664 4.88 45.584 11.216 53.712 19.024 16.608 15.648 34.992 50.592 55.184 98.464l232.944 548.224h17.088l230.512-554.096zM1009.504 490c-1.008 1.28-25.52 32.048-67.6 62.944-56.176 41.296-117.312 63.104-176.8 63.104s-120.624-21.808-176.8-63.104c-42.080-30.896-66.576-61.664-67.6-62.944l-8.704-11.008 8.72-11.008c1.008-1.28 25.52-32.048 67.6-62.96 56.176-41.264 117.312-63.104 176.8-63.104s120.624 21.84 176.8 63.104c42.080 30.896 66.576 61.664 67.6 62.96l8.72 11.008-8.736 11.008zM765.104 382.992c-52.944 0-96 43.056-96 96 0 8.304 1.024 16.352 3.024 24.016l-21.904 3.68c-2.16-8.896-3.328-18.176-3.328-27.712 0-34.208 14.624-65.040 37.92-86.64-29.984 11.072-55.472 26.608-74.72 40.672-23.856 17.424-41.728 35.040-51.904 45.968 10.176 10.944 28.048 28.544 51.904 45.968 19.248 14.048 44.736 29.6 74.72 40.672l14.704-16.576c17.168 16.080 40.256 25.952 65.584 25.952 52.944 0 96-43.072 96-96.016 0-52.912-43.056-95.984-96-95.984zM920.112 433.024c-19.248-14.064-44.736-29.6-74.72-40.672 23.28 21.6 37.904 52.432 37.904 86.64s-14.624 65.056-37.904 86.656c29.984-11.072 55.472-26.624 74.72-40.672 23.84-17.424 41.728-35.024 51.904-45.968-10.176-10.944-28.064-28.544-51.904-45.984zM704 497.664c-1.792-5.92-2.768-12.176-2.768-18.672 0-35.28 28.592-63.872 63.872-63.872s63.872 28.608 63.872 63.872-28.592 63.872-63.872 63.872c-17.184 0-32.768-6.784-44.24-17.824l31.504-35.52-48.368 8.144z" />
<glyph unicode="&#xe904;" glyph-name="annotation-transparent-visibility" d="M416 960v-224h608v224h-608zM992 768h-544v160h544v-160zM224.528 208h227.568l-112.32 267.6zM566.608 572.016c70.672 51.936 147.584 79.376 222.384 79.376 3.664 0 7.328-0.368 11.008-0.496v53.104h-416v256h-384v-1024h800v371.104c-3.664-0.128-7.344-0.496-11.008-0.496-74.816 0-151.712 27.456-222.384 79.376-52.896 38.864-83.744 77.568-85.024 79.184l-10.944 13.824 10.944 13.824c1.28 1.632 32.128 40.336 85.024 79.2zM605.44 85.904c18.56-44.288 35.792-74.624 50.928-87.792 15.152-13.184 31.632-22.208 63.632-23.824v-22.288h-256v22.288c16 1.296 41.168 5.68 50.448 13.168 9.296 7.488 12.416 16.608 12.416 27.36 0 14.32-7.28 35.984-20.288 66.928l-40.816 94.256h-256.384l-44.928-103.552c-11.072-25.712-16.608-44.448-16.608-57.136 0-10.128 4.544-18.736 14.144-26.368 9.616-7.68 30.016-12.4 62.016-14.656v-22.288h-208v22.288c27.664 4.88 45.584 11.216 53.712 19.024 16.608 15.648 34.992 50.592 55.184 98.464l232.944 548.224h17.088l230.512-554.096z" />
<glyph unicode="&#xe905;" glyph-name="arrow-annotation" d="M189.891 958.758c-46.437 0-84.203-37.781-84.203-84.219 0-46.43 37.766-84.195 84.203-84.195 46.43 0 84.219 37.766 84.219 84.195 0 46.438-37.789 84.219-84.219 84.219zM189.891 809.063c-36.102 0-65.492 29.375-65.492 65.477 0 36.117 29.391 65.5 65.492 65.5 36.109 0 65.492-29.383 65.492-65.5 0-36.102-29.383-65.477-65.492-65.477zM904.125 471.016l-621.977 390.523c-6.406-45.406-45.125-80.57-92.258-80.57-4.625 0-9.078 0.719-13.523 1.383l157.438-706.523c0 0 36.648-67.875 95.055-17.641l122.203 191.484 218.641-312.359 116.797 81.484-226.813 312.344 226.813 48.906c0 0 55.641 33.938 17.625 90.969zM218.75 874.539c0-15.934-12.917-28.852-28.852-28.852s-28.852 12.917-28.852 28.852c0 15.934 12.917 28.852 28.852 28.852s28.852-12.917 28.852-28.852z" />
<glyph unicode="&#xe906;" glyph-name="begins-with" d="M455.44 628.432c46.944-9.968 81.968-25.968 105.344-47.92 32.208-30.64 48.432-68.080 48.432-112.368 0-33.616-10.736-65.824-31.968-96.608-21.376-30.784-50.576-53.248-87.712-67.408-37.088-14.16-93.776-21.216-169.92-21.216h-319.616v18.464h25.52c28.208 0 48.512 9.008 60.912 26.96 7.568 11.664 11.472 36.464 11.472 74.4v437.424c0 41.936-4.896 68.4-14.464 79.392-12.992 14.656-32.384 21.968-57.92 21.968h-25.52v18.48h292.656c54.512 0 98.368-4 131.328-11.984 49.92-11.984 87.968-33.216 114.32-63.664 26.24-30.464 39.456-65.504 39.456-105.104 0-33.968-10.384-64.336-30.96-91.136-20.72-26.8-51.168-46.704-91.36-59.68zM193.792 655.408c12.24-2.336 26.304-4.080 42.112-5.264 15.808-1.152 33.28-1.744 52.256-1.744 48.528 0 85.056 5.264 109.52 15.744 24.464 10.464 43.264 26.544 56.272 48.176 12.976 21.648 19.456 45.28 19.456 70.912 0 39.616-16.208 73.408-48.416 101.36-32.384 27.968-79.392 41.952-141.328 41.952-33.36 0-63.328-3.68-89.872-11.008v-260.128zM193.792 331.824c38.528-8.992 76.656-13.472 114.352-13.472 60.144 0 106.096 13.568 137.792 40.688 31.568 27.12 47.44 60.656 47.44 100.624 0 26.304-7.264 51.584-21.472 75.888-14.384 24.304-37.696 43.44-69.904 57.44-32.384 13.968-72.336 20.976-119.84 20.976-20.72 0-38.368-0.336-52.928-1.008-14.72-0.672-26.464-1.808-35.456-3.472v-277.664zM651.040 524.56h98.304v-9.456c-9.040-0.688-14.992-2.32-17.792-4.864s-4.224-6.224-4.224-11.008c0-5.28 1.456-11.68 4.352-19.184l50.176-134.896 50.416 109.792-13.312 34.576c-4.096 10.24-9.488 17.312-16.144 21.232-3.728 2.4-10.72 3.84-20.976 4.352v9.456h111.616v-9.456c-12.304-0.512-20.976-2.736-26.128-6.656-3.408-2.736-5.12-7.088-5.12-13.072 0-3.392 0.704-6.896 2.048-10.48l53.28-134.64 49.392 129.776c3.392 9.216 5.104 16.56 5.104 22.016 0 3.232-1.664 6.144-5.008 8.688-3.296 2.56-9.824 4.016-19.568 4.352v9.456h73.968v-9.456c-14.848-2.224-25.744-12.288-32.768-30.208l-78.336-201.984h-10.496l-58.608 149.76-68.352-149.76h-9.488l-75.232 197.12c-4.96 12.448-9.824 20.864-14.592 25.216-4.8 4.352-12.288 7.648-22.528 9.856v9.472zM0 0h1024v-64h-1024v64zM0 160h608v-64h-608v64z" />
<glyph unicode="&#xe907;" glyph-name="case-sensitive" d="M287.438 791.227h19.453l201.867-477.477c12.422-28.094 23.508-46.469 33.227-55.109 12.969-11.359 32.422-17.031 58.375-17.031v-14.594h-226.992v14.594c39.984 0 59.992 11.875 59.992 35.625 0 9.703-3.32 21.844-9.938 36.438l-41.164 97.359h-214.891l-42.57-97.047c-6.148-14.641-9.211-26.844-9.211-36.594 0-11.391 4.859-20.203 14.586-26.438 9.734-6.219 26.211-9.344 49.445-9.344v-14.594h-175.906v14.594c18.906 0 34.594 6.484 47.031 19.453 10.258 10.813 20.797 28.375 31.617 52.688l205.078 477.477zM275.234 664.195l-95.516-222.359h186.867l-91.352 222.359zM934.578 278.875c-26.391-22.438-51.781-38.266-76.203-47.5-24.406-9.234-50.594-13.859-78.563-13.859-46.188 0-81.688 11.281-106.484 33.844-24.797 22.547-37.203 51.391-37.203 86.484 0 20.578 4.672 39.375 14.047 56.406 9.359 17.016 21.641 30.672 36.813 40.969s32.25 18.070 51.266 23.352c13.984 3.695 35.094 7.258 63.328 10.688 57.516 6.859 99.875 15.039 127.063 24.547 0.266 9.758 0.391 15.961 0.391 18.602 0 29.023-6.719 49.477-20.188 61.344-18.203 16.094-45.266 24.148-81.141 24.148-33.516 0-58.266-5.875-74.219-17.609-15.969-11.742-27.781-32.523-35.422-62.344l-69.656 9.5c6.313 29.82 16.75 53.891 31.25 72.234 14.531 18.344 35.5 32.461 62.953 42.359 27.438 9.898 59.219 14.844 95.375 14.844 35.891 0 65.063-4.227 87.484-12.672 22.422-8.453 38.922-19.070 49.484-31.859 10.563-12.805 17.938-28.961 22.172-48.492 2.375-12.141 3.547-34.039 3.547-65.711v-94.992c0-66.234 1.531-108.125 4.563-125.672 3.016-17.563 9.031-34.375 18-50.469h-74.406c-7.391 14.766-12.141 32.062-14.25 51.859zM928.641 437.992c-25.875-10.57-64.656-19.539-116.375-26.93-29.297-4.219-50.016-8.969-62.141-14.234-12.141-5.281-21.5-13.016-28.094-23.156-6.609-10.156-9.906-21.438-9.906-33.844 0-19 7.172-34.828 21.578-47.516 14.375-12.656 35.422-18.984 63.125-18.984 27.438 0 51.859 6 73.219 18.016 21.391 12 37.078 28.422 47.125 49.281 7.641 16.094 11.469 39.828 11.469 71.25v26.117z" />
<glyph unicode="&#xe908;" glyph-name="circle-annotation" d="M1022.688 448c0-282.045-228.643-510.688-510.688-510.688s-510.688 228.643-510.688 510.688c0 282.045 228.643 510.688 510.688 510.688s510.688-228.643 510.688-510.688z" />
<glyph unicode="&#xe909;" glyph-name="ends-with" d="M651.040 524.56h98.304v-9.456c-9.040-0.688-14.992-2.32-17.792-4.864s-4.224-6.224-4.224-11.008c0-5.28 1.456-11.68 4.352-19.184l50.176-134.896 50.416 109.792-13.312 34.576c-4.096 10.24-9.488 17.312-16.144 21.232-3.728 2.4-10.72 3.84-20.976 4.352v9.456h111.616v-9.456c-12.304-0.512-20.976-2.736-26.128-6.656-3.408-2.736-5.12-7.088-5.12-13.072 0-3.392 0.704-6.896 2.048-10.48l53.28-134.64 49.392 129.776c3.392 9.216 5.104 16.56 5.104 22.016 0 3.232-1.664 6.144-5.008 8.688-3.296 2.56-9.824 4.016-19.568 4.352v9.456h73.968v-9.456c-14.848-2.224-25.744-12.288-32.768-30.208l-78.336-201.984h-10.496l-58.608 149.76-68.352-149.76h-9.488l-75.232 197.12c-4.96 12.448-9.824 20.864-14.592 25.216-4.8 4.352-12.288 7.648-22.528 9.856v9.472zM0 0h1024v-64h-1024v64zM656 160h368v-64h-368v64zM192.096 923.168v-266.736h148.304c38.48 0 64.192 5.808 77.136 17.408 17.264 15.264 26.88 42.128 28.864 80.624h18.416v-234.88h-18.416c-4.656 32.848-9.296 53.904-13.936 63.2-5.968 11.616-15.76 20.736-29.36 27.376s-34.496 9.952-62.704 9.952h-148.304v-222.448c0-29.856 1.328-48.016 3.984-54.48s7.312-11.616 13.936-15.44c6.64-3.808 19.248-5.712 37.824-5.712h114.464c38.144 0 65.856 2.656 83.104 7.968 17.264 5.296 33.84 15.744 49.76 31.344 20.576 20.576 41.648 51.6 63.2 93.056h19.904l-58.224-169.2h-520.048v18.416h23.888c15.92 0 31.008 3.808 45.28 11.44 10.624 5.312 17.84 13.264 21.648 23.888 3.808 10.608 5.728 32.336 5.728 65.184v438.432c0 42.8-4.32 69.168-12.944 79.12-11.936 13.28-31.84 19.904-59.712 19.904h-23.888v18.416h520.032l7.472-147.808h-19.408c-6.96 35.504-14.672 59.888-23.136 73.152-8.448 13.28-20.976 23.392-37.568 30.352-13.264 4.976-36.656 7.456-70.16 7.456h-185.136z" />
<glyph unicode="&#xe90a;" glyph-name="exact-word" d="M2.266 808.828h271.523v-19.391c-25.156 0-43.469-3.789-54.953-11.328-11.5-7.547-17.242-17.078-17.242-28.57 0-10.070 1.063-18.891 3.188-26.438 2.117-7.539 7.070-22.828 14.859-45.82l151.031-425.172 121.539 342.406-27.953 79.703c-14.344 42.352-27.609 70.703-39.781 85.063-16.492 20.102-41.227 30.156-74.188 30.156v19.391h285.523v-19.391c-25.156 0-43.641-3.773-55.484-11.313-11.859-7.547-17.781-17.406-17.781-29.617 0-18.672 5.422-43.078 16.297-73.234l146.484-424.117 148.797 427.234c7.766 23.703 11.656 43.117 11.656 58.219 0 35.219-26.219 52.828-78.656 52.828l1.078 19.391h217.656v-19.391c-34.484 0-59.641-14.734-75.422-44.18-6.469-12.93-15.453-35.922-26.938-68.953l-210.109-617.383h-25.844l-169.18 464.383-164.852-464.383h-25.859l-219.797 614.148c-15.813 45.25-29.094 74.695-39.867 88.352-15.086 18.672-37.008 28.016-65.727 28.016v19.391zM0 864h1024v-32h-1024v32zM0 32h1024v-32h-1024v32z" />
<glyph unicode="&#xe90b;" glyph-name="fill-redact-btn" d="M0 960h695.744v-340.368h-695.744v340.368zM763.76 888.64v-328.512h-560.128v-624.128h820.368v952.64h-260.24zM932.88 130.096h-87.952v-93.088h-61.216v93.088h-87.952v51.008h87.952v93.040h61.216v-93.040h87.952v-51.008z" />
<glyph unicode="&#xe90c;" glyph-name="fit-to-width" horiz-adv-x="1365" d="M1028.437 71.68v-57.344h-691.371v54.443l-78.336 45.227v-138.752c0-21.504 17.579-39.083 39.083-39.083h769.707c21.504 0 39.083 17.579 39.083 39.083v141.653l-78.165-45.227zM337.067 489.301v392.363h345.6v-300.032c0-21.504 17.579-39.083 39.083-39.083h306.688v-56.149l78.336-45.227v198.656c0 11.093-4.608 21.504-12.459 28.672l-302.763 281.088c-7.168 6.485-16.896 10.411-26.624 10.411h-467.115c-21.504 0-39.083-17.579-39.083-39.083v-476.672l78.336 45.056zM761.003 871.253l267.435-248.491v-1.877h-267.435v250.368zM1256.96 293.888l-342.699 197.803c-5.291 3.072-11.776 3.072-17.067 0s-8.533-8.704-8.533-14.848v-128.683h-416.939v128.683c0 6.144-3.243 11.776-8.533 14.848s-11.776 3.072-17.067 0l-342.699-197.803c-5.291-3.072-8.533-8.704-8.533-14.848s3.243-11.776 8.533-14.848l342.699-197.803c2.56-1.536 5.632-2.219 8.533-2.219s5.973 0.683 8.533 2.219c5.291 3.072 8.533 8.704 8.533 14.848v150.869h416.939v-150.869c0-6.144 3.243-11.776 8.533-14.848 2.56-1.536 5.632-2.219 8.533-2.219s5.973 0.683 8.533 2.219l342.699 197.803c5.291 3.072 8.533 8.704 8.533 14.848s-3.243 11.776-8.533 14.848z" />
<glyph unicode="&#xe90d;" glyph-name="infinite" horiz-adv-x="1365" d="M941.909 700.757c-67.413 0-130.901-26.283-177.664-72.875l-81.579-78.507-80.384 77.312c-47.787 47.787-111.275 74.069-178.859 74.069s-131.072-26.453-178.688-74.069c-47.787-47.787-74.069-111.104-74.069-178.688 0-67.413 26.283-130.901 74.069-178.688 47.616-47.787 111.104-74.069 178.688-74.069 67.413 0 131.072 26.283 177.664 73.045l81.579 78.336 80.555-77.312c47.616-47.787 111.275-74.069 178.688-74.069 67.584 0 130.901 26.283 178.688 74.069 47.787 47.616 74.069 111.104 74.069 178.688s-26.283 130.901-74.069 178.688c-47.787 47.787-111.275 74.069-178.688 74.069zM498.688 372.907c-40.277-40.277-110.251-40.277-150.528 0-20.139 20.139-31.232 46.933-31.232 75.264 0 28.501 11.093 55.125 31.232 75.264 19.968 20.139 46.763 31.232 75.093 31.232s55.125-11.093 76.288-32.256l77.312-74.24-78.165-75.264zM1017.173 372.907c-40.277-40.277-109.227-41.301-151.552 1.024l-77.312 74.24 78.336 75.264c40.277 40.277 110.421 40.277 150.528 0.171 20.139-20.309 31.232-46.933 31.232-75.264s-11.264-55.467-31.232-75.435z" />
<glyph unicode="&#xe90e;" glyph-name="infinite-btn" horiz-adv-x="1365" d="M554.325 576c62.123 62.123 157.184 70.997 229.035 27.136-24.405-24.064-52.395-52.224-52.395-52.224-19.627-23.552 2.389-37.205 13.653-36.864h131.243c6.997 0 12.629 0 12.629 0s5.632 0 12.629 0h25.429c6.997 0 12.629 5.632 12.629 12.629v180.565c0.853 16.555-17.408 32.427-36.011 14.165 0 0-30.891-30.208-52.395-51.371-109.397 79.872-263.509 70.827-362.325-27.989-57.685-57.685-84.48-134.144-81.237-209.579h93.355c-3.413 51.371 14.336 104.107 53.76 143.531zM864.939 463.701c3.243-51.541-14.336-104.277-53.931-143.701-62.123-62.123-157.184-70.997-229.035-27.136 24.235 24.064 52.395 52.224 52.395 52.224 19.627 23.552-2.389 37.205-13.653 36.693h-131.243c-6.997 0-12.629 0-12.629 0s-5.803 0-12.629 0h-25.429c-6.997 0-12.629-5.632-12.629-12.629v-180.395c-0.853-16.555 17.237-32.427 36.011-14.165 0 0 30.891 30.208 52.395 51.371 109.397-79.872 263.509-70.827 362.325 27.989 57.515 57.685 84.48 134.144 81.408 209.579l-93.355 0.171zM682.667 955.733c-280.405 0-507.733-227.328-507.733-507.733s227.328-507.733 507.733-507.733 507.733 227.328 507.733 507.733-227.328 507.733-507.733 507.733zM682.667 31.573c-230.059 0-416.427 186.368-416.427 416.427s186.368 416.427 416.427 416.427c230.059 0 416.427-186.368 416.427-416.427s-186.368-416.427-416.427-416.427z" />
<glyph unicode="&#xe90f;" glyph-name="line-annotation" d="M17.031 871.898c306.289-306.281 612.578-612.57 918.875-918.867 45.859-45.875 116.938 25.203 71.063 71.063-306.297 306.297-612.586 612.586-918.867 918.875-45.867 45.859-116.93-25.203-71.070-71.070v0z" />
<glyph unicode="&#xe910;" glyph-name="lowercase-btn" d="M302.416 261.088c-54.8-42.368-89.2-66.848-103.184-73.472-20.992-9.696-43.344-14.56-67.040-14.56-36.928 0-67.344 12.624-91.248 37.872-23.904 25.28-35.856 58.496-35.856 99.712 0 26.016 5.84 48.56 17.488 67.6 15.936 26.432 43.632 51.312 83.056 74.64 39.44 23.312 105.024 51.68 196.752 85.104v20.992c0 53.248-8.448 89.776-25.36 109.6s-41.488 29.728-73.744 29.728c-24.48 0-43.92-6.624-58.288-19.824-14.784-13.216-22.16-28.384-22.16-45.472l1.168-33.808c0-17.888-4.576-31.68-13.696-41.392-9.136-9.696-21.088-14.56-35.856-14.56-14.384 0-26.144 5.040-35.28 15.152s-13.696 23.904-13.696 41.392c0 33.408 17.088 64.112 51.296 92.112 34.208 27.984 82.192 41.968 144 41.968 47.392 0 86.272-7.968 116.576-23.904 22.928-12.048 39.84-30.896 50.72-56.56 7.008-16.704 10.496-50.912 10.496-102.608v-181.296c0-50.912 0.96-82.096 2.928-93.568 1.936-11.488 5.136-19.152 9.616-23.040 4.464-3.888 9.616-5.808 15.44-5.808 6.224 0 11.664 1.36 16.336 4.096 8.144 5.040 23.904 19.216 47.216 42.544v-32.64c-43.536-58.304-85.12-87.472-124.752-87.472-19.040 0-34.208 6.624-45.456 19.824-11.248 13.216-17.088 35.76-17.472 67.648zM302.416 298.992v203.44c-58.688-23.328-96.576-39.856-113.68-49.552-30.704-17.12-52.672-34.976-65.872-53.648-13.216-18.64-19.808-39.040-19.808-61.2 0-27.984 8.336-51.216 25.056-69.664 16.704-18.448 35.952-27.68 57.712-27.68 29.536-0.016 68.4 19.424 116.592 58.304zM832.336 261.088c-54.8-42.368-89.2-66.848-103.184-73.472-20.992-9.696-43.344-14.56-67.024-14.56-36.944 0-67.36 12.624-91.232 37.872-23.904 25.28-35.84 58.496-35.84 99.712 0 26.016 5.808 48.56 17.472 67.6 15.936 26.432 43.632 51.312 83.088 74.64 39.44 23.312 105.008 51.68 196.736 85.104v20.992c0 53.248-8.448 89.776-25.344 109.6-16.912 19.824-41.504 29.728-73.76 29.728-24.464 0-43.904-6.624-58.304-19.824-14.768-13.216-22.144-28.384-22.144-45.472l1.152-33.808c0-17.888-4.576-31.68-13.696-41.392-9.12-9.696-21.072-14.56-35.84-14.56-14.368 0-26.144 5.040-35.264 15.152s-13.68 23.904-13.68 41.392c0 33.408 17.072 64.112 51.264 92.112 34.224 27.984 82.224 41.968 144.016 41.968 47.424 0 86.288-7.968 116.576-23.904 22.96-12.048 39.84-30.896 50.752-56.56 6.976-16.704 10.464-50.912 10.464-102.608v-181.296c0-50.912 0.976-82.096 2.928-93.568 1.936-11.488 5.136-19.152 9.616-23.040s9.632-5.808 15.456-5.808c6.208 0 11.664 1.36 16.32 4.096 8.16 5.040 23.904 19.216 47.232 42.544v-32.64c-43.536-58.304-85.104-87.472-124.752-87.472-19.056 0-34.224 6.624-45.472 19.824-11.312 13.216-17.12 35.76-17.536 67.648zM832.336 298.992v203.44c-58.688-23.328-96.576-39.856-113.664-49.552-30.704-17.12-52.688-34.976-65.872-53.648-13.216-18.64-19.824-39.040-19.824-61.2 0-27.984 8.368-51.216 25.056-69.664 16.72-18.448 35.968-27.68 57.712-27.68 29.536-0.016 68.416 19.424 116.592 58.304z" />
<glyph unicode="&#xe911;" glyph-name="next-btn" horiz-adv-x="1365" d="M1028.437 103.253v-88.917h-691.371v867.328h345.6v-300.032c0-21.504 17.579-39.083 39.083-39.083h306.688v-91.136l78.336-45.227v233.643c0 11.093-4.608 21.504-12.459 28.672l-302.763 281.088c-7.168 6.485-16.896 10.411-26.624 10.411h-467.115c-21.504 0-39.083-17.579-39.083-39.083v-945.664c0-21.675 17.579-39.253 39.083-39.253h769.707c21.504 0 39.083 17.579 39.083 39.083v173.397l-78.165-45.227zM761.003 871.253l267.435-248.491v-1.877h-267.435v250.368zM1226.923 286.891l-379.733 219.307c-3.413 2.048-7.68 2.048-11.093 0s-5.632-5.632-5.632-9.557v-438.443c0-3.925 2.048-7.68 5.632-9.557 1.707-1.024 3.584-1.536 5.632-1.536s3.755 0.512 5.632 1.536l379.733 219.307c3.413 2.048 5.632 5.632 5.632 9.557s-2.389 7.509-5.803 9.387z" />
<glyph unicode="&#xe912;" glyph-name="previous-btn" horiz-adv-x="1365" d="M1150.976 668.501l-302.592 281.088c-7.168 6.485-17.067 10.411-26.795 10.411h-466.944c-21.504 0-39.253-17.579-39.253-39.083v-514.56l78.336 45.227v430.080h345.6v-300.032c0-21.504 17.579-39.083 39.083-39.083h306.517v-528.384h-691.2v89.088l-78.336 45.227v-173.227c0-21.504 17.579-39.083 39.083-39.083h769.707c21.504 0 39.083 17.579 39.083 39.083v664.576c0.171 11.093-4.437 21.504-12.288 28.672zM1085.099 620.885h-267.435v250.368l267.435-248.491v-1.877zM587.435 506.197c-3.413 2.048-7.68 2.048-11.093 0l-379.733-219.307c-3.413-2.048-5.632-5.632-5.632-9.557s2.048-7.68 5.632-9.557l379.733-219.307c1.707-1.024 3.584-1.536 5.632-1.536s3.755 0.512 5.632 1.536c3.413 2.048 5.632 5.632 5.632 9.557v438.613c-0.341 3.925-2.389 7.509-5.803 9.557z" />
<glyph unicode="&#xe913;" glyph-name="redact-btn" d="M436.464 454.736c0 42.448-13.296 76.976-39.872 103.552-26.576 26.56-63.92 39.856-107.696 39.856-19.392 0-48.896-3.168-80.896-9.52v-282.816c16 0 14.032-0.096 18.704-0.256 4.688-0.176 9.6-0.272 12.608-0.272 64.848 0 114.288 14.064 147.216 42.144s49.936 63.856 49.936 107.312zM384 704v256h-384v-1024h800v768h-416zM688-48h-174.32l-230.16 320.064c-17.056-0.672-30.928 0.080-41.632 0.080-4.352 0-11.184 0.64-16.192 0.8s-1.696 0.928-17.696 1.28v-197.584c0-42.784 6.848-72.8 16.208-83.136 12.704-14.72 33.904-25.504 59.312-25.504h20.48v-16h-288v16h28.336c28.752 0 47.040 12.784 59.408 31.504 7.024 10.368 8.256 38.368 8.256 77.136v439.28c0 42.784-2.416 72.528-11.776 82.88-13.040 14.704-30.16 25.2-55.888 25.2h-28.336v16h250.464c72.208 0 125.44-7.136 159.712-17.664s63.344-30.848 87.248-59.104 35.872-62.384 35.872-101.504c0-41.792-13.632-78.288-40.88-109.040-27.264-30.768-69.456-52.608-126.624-65.328l140.4-195.104c32.096-44.784 56.080-74.576 79.136-89.296 23.072-14.704 54.672-24.096 86.672-28.096v-22.864zM416 960v-224h608v224h-608zM992 768h-544v160h544v-160z" />
<glyph unicode="&#xe914;" glyph-name="redact-hidden-visibility" d="M416 960v-224h608v224h-608zM992 768h-544v160h544v-160zM604.624 74.624c-6.144 0-12.288 2.336-16.976 7.024-9.376 9.376-9.376 24.56 0 33.936l8.704 8.704c-13.872 7.984-27.632 16.672-41.088 26.56-49.856 36.608-78.928 73.104-80.128 74.64l-10.32 13.024 10.288 13.024c1.232 1.536 30.304 38.032 80.16 74.64 66.608 48.944 139.088 74.816 209.616 74.816 11.664 0 23.392-0.976 35.12-2.368v305.376h-416v256h-384v-1024h800v142.416c-11.728-1.408-23.472-2.368-35.12-2.368-40.896 0-82.4 8.96-123.072 25.808l-20.208-20.208c-4.688-4.672-10.832-7.024-16.976-7.024zM688-48h-174.32l-230.16 320.064c-17.056-0.672-30.928 0.080-41.632 0.080-4.352 0-11.184 0.64-16.192 0.8s-1.696 0.928-17.696 1.28v-197.584c0-42.784 6.848-72.8 16.208-83.136 12.704-14.72 33.904-25.504 59.312-25.504h20.48v-16h-288v16h28.336c28.752 0 47.040 12.784 59.408 31.504 7.024 10.368 8.256 38.368 8.256 77.136v439.28c0 42.784-2.416 72.528-11.776 82.88-13.040 14.704-30.16 25.2-55.888 25.2h-28.336v16h250.464c72.208 0 125.44-7.136 159.712-17.664s63.344-30.848 87.248-59.104 35.872-62.384 35.872-101.504c0-41.792-13.632-78.288-40.88-109.040-27.264-30.768-69.456-52.608-126.624-65.328l140.4-195.168c32.096-44.784 56.080-74.544 79.136-89.264 23.072-14.704 54.672-24.064 86.672-28.064v-22.864zM436.192 454.736c0 42.448-14.24 76.976-40.816 103.552-26.576 26.56-62.704 39.856-106.496 39.856-19.392 0-48.896-3.168-80.896-9.52v-282.816c16 0 14.032-0.096 18.704-0.256 4.688-0.176 9.6-0.272 12.608-0.272 64.848 0 114.288 14.064 147.216 42.144 32.944 28.080 49.68 63.856 49.68 107.312zM991.024 249.36c-0.992 1.264-24.288 30.48-64.304 59.856-15.664 11.52-31.744 21.232-48.080 29.504l-25.168-25.168c20.528-9.44 38.352-20.592 52.544-30.944 22.672-16.528 39.68-33.296 49.328-43.696-9.68-10.368-26.656-27.152-49.328-43.664-18.32-13.392-42.528-28.144-71.024-38.704 22.144 20.528 36.016 49.84 36.016 82.368 0 25.856-8.864 49.6-23.568 68.608l-15.024-15.024c10.976-15.056 17.536-33.552 17.536-53.584 0-50.336-40.96-91.264-91.28-91.264-20.016 0-38.496 6.56-53.568 17.536l-38.512-38.512c30.496-11.776 61.52-18.048 92.080-18.048 56.528 0 114.672 20.768 168.064 60.016 40.016 29.376 63.312 58.592 64.304 59.824l8.272 10.448-8.288 10.448zM611.312 195.232c-22.672 16.544-39.68 33.296-49.328 43.664 9.648 10.4 26.656 27.168 49.328 43.696 18.272 13.344 42.528 28.144 71.024 38.704l13.984-15.76c16.336 15.296 38.272 24.656 62.336 24.656 12.832 0 25.024-2.688 36.112-7.488l35.488 35.488c-23.84 7.152-47.856 11.024-71.6 11.024-56.528 0-114.672-20.768-168.112-60.016-39.968-29.376-63.28-58.592-64.24-59.856l-8.288-10.448 8.288-10.448c0.96-1.232 24.272-30.448 64.24-59.824 9.952-7.312 20.112-13.76 30.336-19.776l24.656 24.656c-12.88 7.072-24.48 14.576-34.224 21.728zM670.288 261.744l-20.832 3.52c-2.032-8.464-3.12-17.264-3.12-26.352 0-18.72 4.704-36.304 12.832-51.808l15.712 15.712c-4.8 11.072-7.488 23.264-7.488 36.096 0 7.888 1.024 15.52 2.896 22.832zM700.592 256.656c-1.728-5.616-2.656-11.552-2.656-17.744 0-4.064 0.432-8 1.184-11.84l25.552 25.552-24.080 4.032zM716.608 282.672l17.92-20.208 35.984 35.984c-3.84 0.752-7.776 1.184-11.84 1.184-16.336 0.016-31.136-6.464-42.064-16.96zM758.672 178.192c33.552 0 60.736 27.184 60.736 60.72 0 11.6-3.424 22.32-9.040 31.52l-83.184-83.184c9.184-5.632 19.904-9.056 31.488-9.056zM604.624 82.624c-4.096 0-8.192 1.568-11.312 4.688-6.256 6.256-6.256 16.368 0 22.624l270.608 270.608c6.256 6.256 16.368 6.256 22.624 0s6.256-16.368 0-22.624l-270.608-270.608c-3.12-3.12-7.216-4.688-11.312-4.688z" />
<glyph unicode="&#xe915;" glyph-name="redact-show-visibility" d="M555.264 326.208c66.608 48.944 139.088 74.816 209.616 74.816 11.664 0 23.392-0.976 35.12-2.368v305.344h-416v256h-384v-1024h800v142.416c-11.728-1.408-23.472-2.368-35.12-2.368-70.512 0-143.008 25.872-209.616 74.816-49.856 36.608-78.928 73.104-80.128 74.64l-10.32 13.024 10.288 13.024c1.232 1.536 30.304 38.048 80.16 74.656zM522.208 92.192c32.096-44.784 56.080-74.544 79.136-89.264 23.056-14.704 54.656-24.064 86.656-28.064v-22.864h-174.32l-230.16 320.064c-17.056-0.672-30.928 0.080-41.632 0.080-4.352 0-11.184 0.64-16.192 0.8s-1.696 0.928-17.696 1.28v-197.584c0-42.784 6.848-72.8 16.208-83.136 12.704-14.72 33.904-25.504 59.312-25.504h20.48v-16h-288v16h28.336c28.752 0 47.040 12.784 59.408 31.504 7.024 10.368 8.256 38.368 8.256 77.136v439.28c0 42.784-2.416 72.528-11.776 82.88-13.040 14.704-30.16 25.2-55.888 25.2h-28.336v16h250.464c72.208 0 125.44-7.136 159.712-17.664s63.344-30.848 87.248-59.104 35.872-62.384 35.872-101.504c0-41.792-13.632-78.288-40.88-109.040-27.264-30.768-69.456-52.608-126.624-65.328l140.416-195.168zM288.896 598.16c-19.392 0-48.896-3.168-80.896-9.52v-282.816c16 0 14.032-0.096 18.704-0.256 4.688-0.176 9.6-0.272 12.608-0.272 64.848 0 114.288 14.064 147.216 42.144 32.928 28.064 49.664 63.84 49.664 107.312 0 42.448-14.24 76.976-40.816 103.552-26.576 26.56-62.704 39.856-106.48 39.856zM416 960v-224h608v224h-608zM992 768h-544v160h544v-160zM1006.576 250.064c-1.040 1.328-25.904 32.512-68.592 63.856-56.976 41.872-119.008 64.032-179.312 64.032s-122.336-22.16-179.36-64.032c-42.64-31.344-67.504-62.528-68.544-63.856l-8.816-11.152 8.816-11.152c1.024-1.312 25.904-32.48 68.544-63.824 57.008-41.872 119.040-64.032 179.36-64.032s122.336 22.16 179.312 64.032c42.688 31.344 67.552 62.512 68.592 63.824l8.816 11.152-8.816 11.152zM758.672 141.536c-53.68 0-97.392 43.664-97.392 97.376 0 8.416 1.088 16.576 3.088 24.368l-22.224 3.744c-2.192-9.024-3.36-18.432-3.36-28.128 0-34.704 14.816-65.984 38.448-87.872-30.416 11.264-56.32 26.992-75.792 41.264-24.208 17.664-42.336 35.536-52.64 46.608 10.304 11.104 28.432 28.992 52.64 46.64 19.488 14.24 45.376 30.016 75.792 41.264l14.912-16.816c17.456 16.32 40.816 26.32 66.512 26.32 53.68 0 97.392-43.696 97.392-97.408s-43.696-97.36-97.376-97.36zM915.888 192.304c-19.536-14.288-45.376-30-75.792-41.264 23.648 21.888 38.448 53.168 38.448 87.872 0 34.72-14.816 66-38.448 87.904 30.416-11.248 56.272-27.024 75.792-41.264 24.208-17.664 42.336-35.536 52.64-46.64-10.336-11.088-28.432-28.992-52.64-46.608zM696.704 257.84c-1.824-5.984-2.832-12.336-2.832-18.944 0-35.776 29.008-64.784 64.8-64.784s64.8 29.008 64.8 64.784-29.008 64.8-64.8 64.8c-17.44 0-33.216-6.912-44.896-18.096l31.952-36.016-49.024 8.256z" />
<glyph unicode="&#xe916;" glyph-name="redact-transparent-visibility" d="M555.264 326.208c66.608 48.944 139.088 74.816 209.616 74.816 11.664 0 23.392-0.976 35.12-2.368v305.344h-416v256h-384v-1024h800v142.416c-11.728-1.408-23.472-2.368-35.12-2.368-70.512 0-143.008 25.872-209.616 74.816-49.856 36.608-78.928 73.104-80.128 74.64l-10.32 13.024 10.288 13.024c1.232 1.536 30.304 38.048 80.16 74.656zM522.208 92.192c32.096-44.784 56.080-74.544 79.136-89.264 23.056-14.704 54.656-24.064 86.656-28.064v-22.864h-174.32l-230.16 320.064c-17.056-0.672-30.928 0.080-41.632 0.080-4.352 0-11.184 0.64-16.192 0.8s-1.696 0.928-17.696 1.28v-197.584c0-42.784 6.848-72.8 16.208-83.136 12.704-14.72 33.904-25.504 59.312-25.504h20.48v-16h-288v16h28.336c28.752 0 47.040 12.784 59.408 31.504 7.024 10.368 8.256 38.368 8.256 77.136v439.28c0 42.784-2.416 72.528-11.776 82.88-13.040 14.704-30.16 25.2-55.888 25.2h-28.336v16h250.464c72.208 0 125.44-7.136 159.712-17.664s63.344-30.848 87.248-59.104 35.872-62.384 35.872-101.504c0-41.792-13.632-78.288-40.88-109.040-27.264-30.768-69.456-52.608-126.624-65.328l140.416-195.168zM288.896 598.16c-19.392 0-48.896-3.168-80.896-9.52v-282.816c16 0 14.032-0.096 18.704-0.256 4.688-0.176 9.6-0.272 12.608-0.272 64.848 0 114.288 14.064 147.216 42.144 32.928 28.064 49.664 63.84 49.664 107.312 0 42.448-14.24 76.976-40.816 103.552-26.576 26.56-62.704 39.856-106.48 39.856zM416 960v-224h608v224h-608zM992 768h-544v160h544v-160z" />
<glyph unicode="&#xe917;" glyph-name="square-annotation" d="M0 960h1024v-1024h-1024v1024z" />
<glyph unicode="&#xe918;" glyph-name="text-annotation" d="M96.961 957.453h830.102l11.969-243.656h-27.031c-12.969 66.211-34.031 113.813-63.156 142.883-33.031 33.102-82.219 49.617-147.344 49.617h-111.219v-809.094c0-54.109 10.281-90.078 30.844-108.188 20.406-18.094 58.375-27.156 113.438-27.156v-26.922h-445.109v26.922c54.094 0 91.781 9.063 112.836 27.156 21.047 18.109 31.578 54.078 31.578 108.188v809.094h-111.367c-64.125 0-112.219-15.781-144.344-47.352-32.063-31.578-54.094-79.984-66.148-145.148h-27.039l11.992 243.656z" />
<glyph unicode="&#xe919;" glyph-name="text-highlight" d="M976 80h-928c-48 0-48-80 0-80h928c48 0 48 80 0 80zM768 690.432v205.568h-144v-320h-368v320h-144v-768h144v304h248.544zM624 210.528v-82.528h144v224zM794.95 672.195l77.814 77.77 117.278-117.344-77.814-77.77-117.278 117.344zM445.456 322.64l-47.168-164.736 164.752 47.136 317.856 317.84-117.568 117.616-317.872-317.856zM410 168l42.496 145.504 10-55.504 39.504 5.504-4.496-37.008 57.504-16-145.008-42.496zM779.36 568.704c6.992-6.992 6.992-18.368 0-25.328l-248.512-248.48c-6.976-6.976-18.336-6.976-25.28 0-6.992 6.992-6.992 18.336 0 25.344l248.448 248.464c7.008 6.96 18.416 6.96 25.344 0z" />
<glyph unicode="&#xe91a;" glyph-name="text-selection" d="M308.352 348.128h-83.856v466.176c0 55.184 74.32 56.784 82.8 56.784 4.416 0 8 3.584 8 8v72.176c0 4.416-3.584 8-8 8-16.096 0-57.456-2.432-93.824-24.896-9.632-5.952-18.336-12.992-25.984-20.992-7.648 8-16.368 15.040-26 20.992-36.352 22.464-77.712 24.896-93.808 24.896-4.416 0-8-3.584-8-8v-72.176c0-4.416 3.584-8 8-8 8.48 0 82.8-1.6 82.8-56.784v-466.176h-83.856c-4.416 0-8-3.584-8-8v-72.192c0-4.416 3.584-8 8-8h83.872v-177.472c0-55.216-74.336-56.816-82.8-56.816-4.416 0-8-3.584-8-8v-72.16c0-4.416 3.584-8 8-8 16.096 0 57.472 2.416 93.84 24.896 9.632 5.952 18.336 13.008 25.984 21.008 7.664-8.016 16.368-15.056 25.984-21.008 36.352-22.448 77.728-24.88 93.824-24.88 4.416 0 8 3.584 8 8v72.16c0 4.416-3.584 8-8 8-8.48 0-82.8 1.6-82.8 56.816v177.456h83.856c4.416 0 8 3.584 8 8v72.192c-0.032 4.416-3.6 8-8.032 8zM1018.24 360.176l-585.632 596.688c-2.288 2.336-5.76 3.024-8.736 1.808-3.008-1.232-4.976-4.16-4.976-7.408l0.016-836.064c0-3.136 1.824-5.984 4.672-7.28 2.832-1.296 6.192-0.816 8.56 1.232l161.84 140.56 125.936-307.984c1.264-3.088 4.256-4.976 7.408-4.976 1.008 0 2.032 0.192 3.024 0.592l190.224 77.744c1.952 0.8 3.536 2.352 4.336 4.32 0.832 1.952 0.832 4.16 0.032 6.128l-125.92 307.984 213.968 13.056c3.12 0.192 5.856 2.192 6.992 5.104 1.136 2.944 0.448 6.256-1.744 8.496z" />
<glyph unicode="&#xe91b;" glyph-name="uppercase-btn" d="M456.464 382.848h-259.12l-45.408-105.632c-11.184-26-16.784-45.392-16.784-58.224 0-10.208 4.848-19.168 14.576-26.912 9.696-7.712 30.688-12.736 62.928-15.024v-18.304h-210.768v18.304c27.968 4.928 46.064 11.296 54.288 19.2 16.784 15.808 35.392 47.888 55.776 96.272l235.424 550.816h17.296l232.96-556.752c18.736-44.736 35.792-73.776 51.072-87.072 15.312-13.36 36.608-20.832 63.888-22.448v-18.304h-264.016v18.304c26.64 1.28 44.672 5.712 54.032 13.312 9.392 7.552 14.064 16.768 14.064 27.648 0 14.464-6.576 37.328-19.728 68.576l-40.48 96.24zM442.656 419.376l-113.536 270.48-116.48-270.48h230.016zM957.872 199.52c-15.312 13.296-33.424 44.672-52.192 89.424l-234.032 559.056h-17.28l-136.64-322 24.048-54.016 94.336 216.768 113.52-272.752h-184.464l16.608-48h181.648l40.496-88.816c13.152-31.28 19.712-50.416 19.712-64.88 0-10.896-6.448-18.24-15.824-25.792-9.344-7.568-7.808-10.176-55.808-11.456v-17.056h272v17.056c-32.72 1.632-50.784 9.104-66.128 22.464z" />
</font>
</defs>
</svg>
